<svg xmlns="http://www.w3.org/2000/svg">
  <symbol id="html-watermark" width="94" height="13" fill="currentColor">
    <g opacity=".5" style="mix-blend-mode:hard-light">
      <mask id="a" width="96" height="15" x="-1" y="-1" fill="#000" maskUnits="userSpaceOnUse">
        <path fill="#fff" d="M-1-1h96v15H-1z"/>
        <path d="M6 12.25V10.5H4.25V8.75H2.5V7H.75V5.25H2.5V3.5h1.75V1.75H6V0h3.5v1.75H7.75V3.5H6v1.75H4.25V7H6v1.75h1.75v1.75H9.5v1.75H6ZM25.25 0v1.75H23.5V0h1.75Zm-3.5 1.75h1.75V3.5h-1.75V1.75ZM20 3.5h1.75v1.75H20V3.5Zm-1.75 1.75H20V7h-1.75V5.25ZM16.5 7h1.75v1.75H16.5V7Zm-1.75 1.75h1.75v1.75h-1.75V8.75ZM13 10.5h1.75v1.75H13V10.5Zm14 1.75V0h3.5v5.25h5.25V0h3.5v12.25h-3.5V7H30.5v5.25H27Zm19.25 0V1.75h-3.5V0h10.5v1.75h-3.5v10.5h-3.5Zm8.75 0V0h3.5v1.75h1.75V3.5H62V1.75h1.75V0h3.5v12.25h-3.5v-7H62v3.5h-1.75v-3.5H58.5v7H55Zm15.75 0V0h3.5v10.5h7v1.75h-10.5Zm14 0V10.5h1.75V8.75h1.75V7H90V5.25h-1.75V3.5H86.5V1.75h-1.75V0h3.5v1.75H90V3.5h1.75v1.75h1.75V7h-1.75v1.75H90v1.75h-1.75v1.75h-3.5Z"/>
      </mask>
      <path fill="#000" d="M6 12.25V10.5H4.25V8.75H2.5V7H.75V5.25H2.5V3.5h1.75V1.75H6V0h3.5v1.75H7.75V3.5H6v1.75H4.25V7H6v1.75h1.75v1.75H9.5v1.75H6ZM25.25 0v1.75H23.5V0h1.75Zm-3.5 1.75h1.75V3.5h-1.75V1.75ZM20 3.5h1.75v1.75H20V3.5Zm-1.75 1.75H20V7h-1.75V5.25ZM16.5 7h1.75v1.75H16.5V7Zm-1.75 1.75h1.75v1.75h-1.75V8.75ZM13 10.5h1.75v1.75H13V10.5Zm14 1.75V0h3.5v5.25h5.25V0h3.5v12.25h-3.5V7H30.5v5.25H27Zm19.25 0V1.75h-3.5V0h10.5v1.75h-3.5v10.5h-3.5Zm8.75 0V0h3.5v1.75h1.75V3.5H62V1.75h1.75V0h3.5v12.25h-3.5v-7H62v3.5h-1.75v-3.5H58.5v7H55Zm15.75 0V0h3.5v10.5h7v1.75h-10.5Zm14 0V10.5h1.75V8.75h1.75V7H90V5.25h-1.75V3.5H86.5V1.75h-1.75V0h3.5v1.75H90V3.5h1.75v1.75h1.75V7h-1.75v1.75H90v1.75h-1.75v1.75h-3.5Z"/>
      <path fill="#fff" d="M6 12.25H5v1h1v-1Zm0-1.75h1v-1H6v1Zm-1.75 0h-1v1h1v-1Zm0-1.75h1v-1h-1v1Zm-1.75 0h-1v1h1v-1ZM2.5 7h1V6h-1v1ZM.75 7h-1v1h1V7Zm0-1.75v-1h-1v1h1Zm1.75 0v1h1v-1h-1Zm0-1.75v-1h-1v1h1Zm1.75 0v1h1v-1h-1Zm0-1.75v-1h-1v1h1Zm1.75 0v1h1v-1H6ZM6 0v-1H5v1h1Zm3.5 0h1v-1h-1v1Zm0 1.75v1h1v-1h-1Zm-1.75 0v-1h-1v1h1Zm0 1.75v1h1v-1h-1ZM6 3.5v-1H5v1h1Zm0 1.75v1h1v-1H6Zm-1.75 0v-1h-1v1h1Zm0 1.75h-1v1h1V7ZM6 7h1V6H6v1Zm0 1.75H5v1h1v-1Zm1.75 0h1v-1h-1v1Zm0 1.75h-1v1h1v-1Zm1.75 0h1v-1h-1v1Zm0 1.75v1h1v-1h-1Zm-2.5 0V10.5H5v1.75h2ZM6 9.5H4.25v2H6v-2Zm-.75 1V8.75h-2v1.75h2Zm-1-2.75H2.5v2h1.75v-2Zm-.75 1V7h-2v1.75h2ZM2.5 6H.75v2H2.5V6Zm-.75 1V5.25h-2V7h2Zm-1-.75H2.5v-2H.75v2Zm2.75-1V3.5h-2v1.75h2Zm-1-.75h1.75v-2H2.5v2Zm2.75-1V1.75h-2V3.5h2Zm-1-.75H6v-2H4.25v2Zm2.75-1V0H5v1.75h2ZM6 1h3.5v-2H6v2Zm2.5-1v1.75h2V0h-2Zm1 .75H7.75v2H9.5v-2Zm-2.75 1V3.5h2V1.75h-2Zm1 .75H6v2h1.75v-2ZM5 3.5v1.75h2V3.5H5Zm1 .75H4.25v2H6v-2Zm-2.75 1V7h2V5.25h-2Zm1 2.75H6V6H4.25v2ZM5 7v1.75h2V7H5Zm1 2.75h1.75v-2H6v2Zm.75-1v1.75h2V8.75h-2Zm1 2.75H9.5v-2H7.75v2Zm.75-1v1.75h2V10.5h-2Zm1 .75H6v2h3.5v-2ZM25.25 0h1v-1h-1v1Zm0 1.75v1h1v-1h-1Zm-1.75 0h-1v1h1v-1Zm0-1.75v-1h-1v1h1Zm-1.75 1.75v-1h-1v1h1Zm1.75 0h1v-1h-1v1Zm0 1.75v1h1v-1h-1Zm-1.75 0h-1v1h1v-1ZM20 3.5v-1h-1v1h1Zm1.75 0h1v-1h-1v1Zm0 1.75v1h1v-1h-1Zm-1.75 0h-1v1h1v-1Zm-1.75 0v-1h-1v1h1Zm1.75 0h1v-1h-1v1ZM20 7v1h1V7h-1Zm-1.75 0h-1v1h1V7ZM16.5 7V6h-1v1h1Zm1.75 0h1V6h-1v1Zm0 1.75v1h1v-1h-1Zm-1.75 0h-1v1h1v-1Zm-1.75 0v-1h-1v1h1Zm1.75 0h1v-1h-1v1Zm0 1.75v1h1v-1h-1Zm-1.75 0h-1v1h1v-1Zm-1.75 0v-1h-1v1h1Zm1.75 0h1v-1h-1v1Zm0 1.75v1h1v-1h-1Zm-1.75 0h-1v1h1v-1ZM24.25 0v1.75h2V0h-2Zm1 .75H23.5v2h1.75v-2Zm-.75 1V0h-2v1.75h2Zm-1-.75h1.75v-2H23.5v2Zm-1.75 1.75h1.75v-2h-1.75v2Zm.75-1V3.5h2V1.75h-2Zm1 .75h-1.75v2h1.75v-2Zm-.75 1V1.75h-2V3.5h2ZM20 4.5h1.75v-2H20v2Zm.75-1v1.75h2V3.5h-2Zm1 .75H20v2h1.75v-2Zm-.75 1V3.5h-2v1.75h2Zm-2.75 1H20v-2h-1.75v2Zm.75-1V7h2V5.25h-2ZM20 6h-1.75v2H20V6Zm-.75 1V5.25h-2V7h2ZM16.5 8h1.75V6H16.5v2Zm.75-1v1.75h2V7h-2Zm1 .75H16.5v2h1.75v-2Zm-.75 1V7h-2v1.75h2Zm-2.75 1h1.75v-2h-1.75v2Zm.75-1v1.75h2V8.75h-2Zm1 .75h-1.75v2h1.75v-2Zm-.75 1V8.75h-2v1.75h2Zm-2.75 1h1.75v-2H13v2Zm.75-1v1.75h2V10.5h-2Zm1 .75H13v2h1.75v-2Zm-.75 1V10.5h-2v1.75h2Zm13 0h-1v1h1v-1ZM27 0v-1h-1v1h1Zm3.5 0h1v-1h-1v1Zm0 5.25h-1v1h1v-1Zm5.25 0v1h1v-1h-1Zm0-5.25v-1h-1v1h1Zm3.5 0h1v-1h-1v1Zm0 12.25v1h1v-1h-1Zm-3.5 0h-1v1h1v-1Zm0-5.25h1V6h-1v1ZM30.5 7V6h-1v1h1Zm0 5.25v1h1v-1h-1Zm-2.5 0V0h-2v12.25h2ZM27 1h3.5v-2H27v2Zm2.5-1v5.25h2V0h-2Zm1 6.25h5.25v-2H30.5v2Zm6.25-1V0h-2v5.25h2Zm-1-4.25h3.5v-2h-3.5v2Zm2.5-1v12.25h2V0h-2Zm1 11.25h-3.5v2h3.5v-2Zm-2.5 1V7h-2v5.25h2Zm-1-6.25H30.5v2h5.25V6ZM29.5 7v5.25h2V7h-2Zm1 4.25H27v2h3.5v-2Zm15.75 1h-1v1h1v-1Zm0-10.5h1v-1h-1v1Zm-3.5 0h-1v1h1v-1Zm0-1.75v-1h-1v1h1Zm10.5 0h1v-1h-1v1Zm0 1.75v1h1v-1h-1Zm-3.5 0v-1h-1v1h1Zm0 10.5v1h1v-1h-1Zm-2.5 0V1.75h-2v10.5h2Zm-1-11.5h-3.5v2h3.5v-2Zm-2.5 1V0h-2v1.75h2Zm-1-.75h10.5v-2h-10.5v2Zm9.5-1v1.75h2V0h-2Zm1 .75h-3.5v2h3.5v-2Zm-4.5 1v10.5h2V1.75h-2Zm1 9.5h-3.5v2h3.5v-2Zm5.25 1h-1v1h1v-1ZM55 0v-1h-1v1h1Zm3.5 0h1v-1h-1v1Zm0 1.75h-1v1h1v-1Zm1.75 0h1v-1h-1v1Zm0 1.75h-1v1h1v-1Zm1.75 0v1h1v-1h-1Zm0-1.75v-1h-1v1h1Zm1.75 0v1h1v-1h-1Zm0-1.75v-1h-1v1h1Zm3.5 0h1v-1h-1v1Zm0 12.25v1h1v-1h-1Zm-3.5 0h-1v1h1v-1Zm0-7h1v-1h-1v1Zm-1.75 0v-1h-1v1h1Zm0 3.5v1h1v-1h-1Zm-1.75 0h-1v1h1v-1Zm0-3.5h1v-1h-1v1Zm-1.75 0v-1h-1v1h1Zm0 7v1h1v-1h-1Zm-2.5 0V0h-2v12.25h2ZM55 1h3.5v-2H55v2Zm2.5-1v1.75h2V0h-2Zm1 2.75h1.75v-2H58.5v2Zm.75-1V3.5h2V1.75h-2Zm1 2.75H62v-2h-1.75v2Zm2.75-1V1.75h-2V3.5h2Zm-1-.75h1.75v-2H62v2Zm2.75-1V0h-2v1.75h2Zm-1-.75h3.5v-2h-3.5v2Zm2.5-1v12.25h2V0h-2Zm1 11.25h-3.5v2h3.5v-2Zm-2.5 1v-7h-2v7h2Zm-1-8H62v2h1.75v-2Zm-2.75 1v3.5h2v-3.5h-2Zm1 2.5h-1.75v2H62v-2Zm-.75 1v-3.5h-2v3.5h2Zm-1-4.5H58.5v2h1.75v-2Zm-2.75 1v7h2v-7h-2Zm1 6H55v2h3.5v-2Zm12.25 1h-1v1h1v-1Zm0-12.25v-1h-1v1h1Zm3.5 0h1v-1h-1v1Zm0 10.5h-1v1h1v-1Zm7 0h1v-1h-1v1Zm0 1.75v1h1v-1h-1Zm-9.5 0V0h-2v12.25h2ZM70.75 1h3.5v-2h-3.5v2Zm2.5-1v10.5h2V0h-2Zm1 11.5h7v-2h-7v2Zm6-1v1.75h2V10.5h-2Zm1 .75h-10.5v2h10.5v-2Zm3.5 1h-1v1h1v-1Zm0-1.75v-1h-1v1h1Zm1.75 0v1h1v-1h-1Zm0-1.75v-1h-1v1h1Zm1.75 0v1h1v-1h-1Zm0-1.75V6h-1v1h1ZM90 7v1h1V7h-1Zm0-1.75h1v-1h-1v1Zm-1.75 0h-1v1h1v-1Zm0-1.75h1v-1h-1v1Zm-1.75 0h-1v1h1v-1Zm0-1.75h1v-1h-1v1Zm-1.75 0h-1v1h1v-1Zm0-1.75v-1h-1v1h1Zm3.5 0h1v-1h-1v1Zm0 1.75h-1v1h1v-1Zm1.75 0h1v-1h-1v1Zm0 1.75h-1v1h1v-1Zm1.75 0h1v-1h-1v1Zm0 1.75h-1v1h1v-1Zm1.75 0h1v-1h-1v1Zm0 1.75v1h1V7h-1Zm-1.75 0V6h-1v1h1Zm0 1.75v1h1v-1h-1Zm-1.75 0v-1h-1v1h1Zm0 1.75v1h1v-1h-1Zm-1.75 0v-1h-1v1h1Zm0 1.75v1h1v-1h-1Zm-2.5 0V10.5h-2v1.75h2Zm-1-.75h1.75v-2h-1.75v2Zm2.75-1V8.75h-2v1.75h2Zm-1-.75h1.75v-2H86.5v2Zm2.75-1V7h-2v1.75h2Zm-1-.75H90V6h-1.75v2ZM91 7V5.25h-2V7h2Zm-1-2.75h-1.75v2H90v-2Zm-.75 1V3.5h-2v1.75h2Zm-1-2.75H86.5v2h1.75v-2Zm-.75 1V1.75h-2V3.5h2Zm-1-2.75h-1.75v2h1.75v-2Zm-.75 1V0h-2v1.75h2Zm-1-.75h3.5v-2h-3.5v2Zm2.5-1v1.75h2V0h-2Zm1 2.75H90v-2h-1.75v2Zm.75-1V3.5h2V1.75h-2Zm1 2.75h1.75v-2H90v2Zm.75-1v1.75h2V3.5h-2Zm1 2.75h1.75v-2h-1.75v2Zm.75-1V7h2V5.25h-2Zm1 .75h-1.75v2h1.75V6Zm-2.75 1v1.75h2V7h-2Zm1 .75H90v2h1.75v-2Zm-2.75 1v1.75h2V8.75h-2Zm1 .75h-1.75v2H90v-2Zm-2.75 1v1.75h2V10.5h-2Zm1 .75h-3.5v2h3.5v-2Z" mask="url(#a)"/>
    </g>
  </symbol>
  <symbol id="css-watermark" width="66" height="13" fill="currentColor">
    <g opacity=".5" style="mix-blend-mode:hard-light">
      <mask id="a" width="68" height="15" x="-1" y="-1" fill="#000" maskUnits="userSpaceOnUse">
        <path fill="#fff" d="M-1-1h68v15H-1z"/>
        <path d="M6 12.25V10.5H4.25V8.75H2.5V7H.75V5.25H2.5V3.5h1.75V1.75H6V0h3.5v1.75H7.75V3.5H6v1.75H4.25V7H6v1.75h1.75v1.75H9.5v1.75H6Zm10.5 0V10.5h-1.75V8.75H13V3.5h1.75V1.75h1.75V0h7v1.75h1.75V3.5h-3.5V1.75h-3.5V3.5H16.5v5.25h1.75v1.75h3.5V8.75h3.5v1.75H23.5v1.75h-7Zm12.25 0V10.5H27V8.75h3.5v1.75h5.25V7h-7V5.25H27v-3.5h1.75V0h8.75v1.75h1.75V3.5h-3.5V1.75H30.5v3.5h7V7h1.75v3.5H37.5v1.75h-8.75Zm14 0V10.5H41V8.75h3.5v1.75h5.25V7h-7V5.25H41v-3.5h1.75V0h8.75v1.75h1.75V3.5h-3.5V1.75H44.5v3.5h7V7h1.75v3.5H51.5v1.75h-8.75Zm14 0V10.5h1.75V8.75h1.75V7H62V5.25h-1.75V3.5H58.5V1.75h-1.75V0h3.5v1.75H62V3.5h1.75v1.75h1.75V7h-1.75v1.75H62v1.75h-1.75v1.75h-3.5Z"/>
      </mask>
      <path fill="#000" d="M6 12.25V10.5H4.25V8.75H2.5V7H.75V5.25H2.5V3.5h1.75V1.75H6V0h3.5v1.75H7.75V3.5H6v1.75H4.25V7H6v1.75h1.75v1.75H9.5v1.75H6Zm10.5 0V10.5h-1.75V8.75H13V3.5h1.75V1.75h1.75V0h7v1.75h1.75V3.5h-3.5V1.75h-3.5V3.5H16.5v5.25h1.75v1.75h3.5V8.75h3.5v1.75H23.5v1.75h-7Zm12.25 0V10.5H27V8.75h3.5v1.75h5.25V7h-7V5.25H27v-3.5h1.75V0h8.75v1.75h1.75V3.5h-3.5V1.75H30.5v3.5h7V7h1.75v3.5H37.5v1.75h-8.75Zm14 0V10.5H41V8.75h3.5v1.75h5.25V7h-7V5.25H41v-3.5h1.75V0h8.75v1.75h1.75V3.5h-3.5V1.75H44.5v3.5h7V7h1.75v3.5H51.5v1.75h-8.75Zm14 0V10.5h1.75V8.75h1.75V7H62V5.25h-1.75V3.5H58.5V1.75h-1.75V0h3.5v1.75H62V3.5h1.75v1.75h1.75V7h-1.75v1.75H62v1.75h-1.75v1.75h-3.5Z"/>
      <path fill="#fff" d="M6 12.25H5v1h1v-1Zm0-1.75h1v-1H6v1Zm-1.75 0h-1v1h1v-1Zm0-1.75h1v-1h-1v1Zm-1.75 0h-1v1h1v-1ZM2.5 7h1V6h-1v1ZM.75 7h-1v1h1V7Zm0-1.75v-1h-1v1h1Zm1.75 0v1h1v-1h-1Zm0-1.75v-1h-1v1h1Zm1.75 0v1h1v-1h-1Zm0-1.75v-1h-1v1h1Zm1.75 0v1h1v-1H6ZM6 0v-1H5v1h1Zm3.5 0h1v-1h-1v1Zm0 1.75v1h1v-1h-1Zm-1.75 0v-1h-1v1h1Zm0 1.75v1h1v-1h-1ZM6 3.5v-1H5v1h1Zm0 1.75v1h1v-1H6Zm-1.75 0v-1h-1v1h1Zm0 1.75h-1v1h1V7ZM6 7h1V6H6v1Zm0 1.75H5v1h1v-1Zm1.75 0h1v-1h-1v1Zm0 1.75h-1v1h1v-1Zm1.75 0h1v-1h-1v1Zm0 1.75v1h1v-1h-1Zm-2.5 0V10.5H5v1.75h2ZM6 9.5H4.25v2H6v-2Zm-.75 1V8.75h-2v1.75h2Zm-1-2.75H2.5v2h1.75v-2Zm-.75 1V7h-2v1.75h2ZM2.5 6H.75v2H2.5V6Zm-.75 1V5.25h-2V7h2Zm-1-.75H2.5v-2H.75v2Zm2.75-1V3.5h-2v1.75h2Zm-1-.75h1.75v-2H2.5v2Zm2.75-1V1.75h-2V3.5h2Zm-1-.75H6v-2H4.25v2Zm2.75-1V0H5v1.75h2ZM6 1h3.5v-2H6v2Zm2.5-1v1.75h2V0h-2Zm1 .75H7.75v2H9.5v-2Zm-2.75 1V3.5h2V1.75h-2Zm1 .75H6v2h1.75v-2ZM5 3.5v1.75h2V3.5H5Zm1 .75H4.25v2H6v-2Zm-2.75 1V7h2V5.25h-2Zm1 2.75H6V6H4.25v2ZM5 7v1.75h2V7H5Zm1 2.75h1.75v-2H6v2Zm.75-1v1.75h2V8.75h-2Zm1 2.75H9.5v-2H7.75v2Zm.75-1v1.75h2V10.5h-2Zm1 .75H6v2h3.5v-2Zm7 1h-1v1h1v-1Zm0-1.75h1v-1h-1v1Zm-1.75 0h-1v1h1v-1Zm0-1.75h1v-1h-1v1Zm-1.75 0h-1v1h1v-1Zm0-5.25v-1h-1v1h1Zm1.75 0v1h1v-1h-1Zm0-1.75v-1h-1v1h1Zm1.75 0v1h1v-1h-1Zm0-1.75v-1h-1v1h1Zm7 0h1v-1h-1v1Zm0 1.75h-1v1h1v-1Zm1.75 0h1v-1h-1v1Zm0 1.75v1h1v-1h-1Zm-3.5 0h-1v1h1v-1Zm0-1.75h1v-1h-1v1Zm-3.5 0v-1h-1v1h1Zm0 1.75v1h1v-1h-1Zm-1.75 0v-1h-1v1h1Zm0 5.25h-1v1h1v-1Zm1.75 0h1v-1h-1v1Zm0 1.75h-1v1h1v-1Zm3.5 0v1h1v-1h-1Zm0-1.75v-1h-1v1h1Zm3.5 0h1v-1h-1v1Zm0 1.75v1h1v-1h-1Zm-1.75 0v-1h-1v1h1Zm0 1.75v1h1v-1h-1Zm-6 0V10.5h-2v1.75h2Zm-1-2.75h-1.75v2h1.75v-2Zm-.75 1V8.75h-2v1.75h2Zm-1-2.75H13v2h1.75v-2Zm-.75 1V3.5h-2v5.25h2ZM13 4.5h1.75v-2H13v2Zm2.75-1V1.75h-2V3.5h2Zm-1-.75h1.75v-2h-1.75v2Zm2.75-1V0h-2v1.75h2Zm-1-.75h7v-2h-7v2Zm6-1v1.75h2V0h-2Zm1 2.75h1.75v-2H23.5v2Zm.75-1V3.5h2V1.75h-2Zm1 .75h-3.5v2h3.5v-2Zm-2.5 1V1.75h-2V3.5h2Zm-1-2.75h-3.5v2h3.5v-2Zm-4.5 1V3.5h2V1.75h-2Zm1 .75H16.5v2h1.75v-2Zm-2.75 1v5.25h2V3.5h-2Zm1 6.25h1.75v-2H16.5v2Zm.75-1v1.75h2V8.75h-2Zm1 2.75h3.5v-2h-3.5v2Zm4.5-1V8.75h-2v1.75h2Zm-1-.75h3.5v-2h-3.5v2Zm2.5-1v1.75h2V8.75h-2Zm1 .75H23.5v2h1.75v-2Zm-2.75 1v1.75h2V10.5h-2Zm1 .75h-7v2h7v-2Zm5.25 1h-1v1h1v-1Zm0-1.75h1v-1h-1v1Zm-1.75 0h-1v1h1v-1Zm0-1.75v-1h-1v1h1Zm3.5 0h1v-1h-1v1Zm0 1.75h-1v1h1v-1Zm5.25 0v1h1v-1h-1Zm0-3.5h1V6h-1v1Zm-7 0h-1v1h1V7Zm0-1.75h1v-1h-1v1Zm-1.75 0h-1v1h1v-1Zm0-3.5v-1h-1v1h1Zm1.75 0v1h1v-1h-1Zm0-1.75v-1h-1v1h1Zm8.75 0h1v-1h-1v1Zm0 1.75h-1v1h1v-1Zm1.75 0h1v-1h-1v1Zm0 1.75v1h1v-1h-1Zm-3.5 0h-1v1h1v-1Zm0-1.75h1v-1h-1v1Zm-5.25 0v-1h-1v1h1Zm0 3.5h-1v1h1v-1Zm7 0h1v-1h-1v1Zm0 1.75h-1v1h1V7Zm1.75 0h1V6h-1v1Zm0 3.5v1h1v-1h-1Zm-1.75 0v-1h-1v1h1Zm0 1.75v1h1v-1h-1Zm-7.75 0V10.5h-2v1.75h2Zm-1-2.75H27v2h1.75v-2Zm-.75 1V8.75h-2v1.75h2Zm-1-.75h3.5v-2H27v2Zm2.5-1v1.75h2V8.75h-2Zm1 2.75h5.25v-2H30.5v2Zm6.25-1V7h-2v3.5h2Zm-1-4.5h-7v2h7V6Zm-6 1V5.25h-2V7h2Zm-1-2.75H27v2h1.75v-2Zm-.75 1v-3.5h-2v3.5h2Zm-1-2.5h1.75v-2H27v2Zm2.75-1V0h-2v1.75h2Zm-1-.75h8.75v-2h-8.75v2Zm7.75-1v1.75h2V0h-2Zm1 2.75h1.75v-2H37.5v2Zm.75-1V3.5h2V1.75h-2Zm1 .75h-3.5v2h3.5v-2Zm-2.5 1V1.75h-2V3.5h2Zm-1-2.75H30.5v2h5.25v-2Zm-6.25 1v3.5h2v-3.5h-2Zm1 4.5h7v-2h-7v2Zm6-1V7h2V5.25h-2Zm1 2.75h1.75V6H37.5v2Zm.75-1v3.5h2V7h-2Zm1 2.5H37.5v2h1.75v-2Zm-2.75 1v1.75h2V10.5h-2Zm1 .75h-8.75v2h8.75v-2Zm5.25 1h-1v1h1v-1Zm0-1.75h1v-1h-1v1Zm-1.75 0h-1v1h1v-1Zm0-1.75v-1h-1v1h1Zm3.5 0h1v-1h-1v1Zm0 1.75h-1v1h1v-1Zm5.25 0v1h1v-1h-1Zm0-3.5h1V6h-1v1Zm-7 0h-1v1h1V7Zm0-1.75h1v-1h-1v1Zm-1.75 0h-1v1h1v-1Zm0-3.5v-1h-1v1h1Zm1.75 0v1h1v-1h-1Zm0-1.75v-1h-1v1h1Zm8.75 0h1v-1h-1v1Zm0 1.75h-1v1h1v-1Zm1.75 0h1v-1h-1v1Zm0 1.75v1h1v-1h-1Zm-3.5 0h-1v1h1v-1Zm0-1.75h1v-1h-1v1Zm-5.25 0v-1h-1v1h1Zm0 3.5h-1v1h1v-1Zm7 0h1v-1h-1v1Zm0 1.75h-1v1h1V7Zm1.75 0h1V6h-1v1Zm0 3.5v1h1v-1h-1Zm-1.75 0v-1h-1v1h1Zm0 1.75v1h1v-1h-1Zm-7.75 0V10.5h-2v1.75h2Zm-1-2.75H41v2h1.75v-2Zm-.75 1V8.75h-2v1.75h2Zm-1-.75h3.5v-2H41v2Zm2.5-1v1.75h2V8.75h-2Zm1 2.75h5.25v-2H44.5v2Zm6.25-1V7h-2v3.5h2Zm-1-4.5h-7v2h7V6Zm-6 1V5.25h-2V7h2Zm-1-2.75H41v2h1.75v-2Zm-.75 1v-3.5h-2v3.5h2Zm-1-2.5h1.75v-2H41v2Zm2.75-1V0h-2v1.75h2Zm-1-.75h8.75v-2h-8.75v2Zm7.75-1v1.75h2V0h-2Zm1 2.75h1.75v-2H51.5v2Zm.75-1V3.5h2V1.75h-2Zm1 .75h-3.5v2h3.5v-2Zm-2.5 1V1.75h-2V3.5h2Zm-1-2.75H44.5v2h5.25v-2Zm-6.25 1v3.5h2v-3.5h-2Zm1 4.5h7v-2h-7v2Zm6-1V7h2V5.25h-2Zm1 2.75h1.75V6H51.5v2Zm.75-1v3.5h2V7h-2Zm1 2.5H51.5v2h1.75v-2Zm-2.75 1v1.75h2V10.5h-2Zm1 .75h-8.75v2h8.75v-2Zm5.25 1h-1v1h1v-1Zm0-1.75v-1h-1v1h1Zm1.75 0v1h1v-1h-1Zm0-1.75v-1h-1v1h1Zm1.75 0v1h1v-1h-1Zm0-1.75V6h-1v1h1ZM62 7v1h1V7h-1Zm0-1.75h1v-1h-1v1Zm-1.75 0h-1v1h1v-1Zm0-1.75h1v-1h-1v1Zm-1.75 0h-1v1h1v-1Zm0-1.75h1v-1h-1v1Zm-1.75 0h-1v1h1v-1Zm0-1.75v-1h-1v1h1Zm3.5 0h1v-1h-1v1Zm0 1.75h-1v1h1v-1Zm1.75 0h1v-1h-1v1Zm0 1.75h-1v1h1v-1Zm1.75 0h1v-1h-1v1Zm0 1.75h-1v1h1v-1Zm1.75 0h1v-1h-1v1Zm0 1.75v1h1V7h-1Zm-1.75 0V6h-1v1h1Zm0 1.75v1h1v-1h-1Zm-1.75 0v-1h-1v1h1Zm0 1.75v1h1v-1h-1Zm-1.75 0v-1h-1v1h1Zm0 1.75v1h1v-1h-1Zm-2.5 0V10.5h-2v1.75h2Zm-1-.75h1.75v-2h-1.75v2Zm2.75-1V8.75h-2v1.75h2Zm-1-.75h1.75v-2H58.5v2Zm2.75-1V7h-2v1.75h2Zm-1-.75H62V6h-1.75v2ZM63 7V5.25h-2V7h2Zm-1-2.75h-1.75v2H62v-2Zm-.75 1V3.5h-2v1.75h2Zm-1-2.75H58.5v2h1.75v-2Zm-.75 1V1.75h-2V3.5h2Zm-1-2.75h-1.75v2h1.75v-2Zm-.75 1V0h-2v1.75h2Zm-1-.75h3.5v-2h-3.5v2Zm2.5-1v1.75h2V0h-2Zm1 2.75H62v-2h-1.75v2Zm.75-1V3.5h2V1.75h-2Zm1 2.75h1.75v-2H62v2Zm.75-1v1.75h2V3.5h-2Zm1 2.75h1.75v-2h-1.75v2Zm.75-1V7h2V5.25h-2Zm1 .75h-1.75v2h1.75V6Zm-2.75 1v1.75h2V7h-2Zm1 .75H62v2h1.75v-2Zm-2.75 1v1.75h2V8.75h-2Zm1 .75h-1.75v2H62v-2Zm-2.75 1v1.75h2V10.5h-2Zm1 .75h-3.5v2h3.5v-2Z" mask="url(#a)"/>
    </g>
  </symbol>
  <symbol id="desigions-watermark" width="55" height="10" fill="currentColor">
    <g opacity=".5" style="mix-blend-mode:hard-light">
      <mask id="a" width="57" height="12" x="-1" y="-1" fill="#000" maskUnits="userSpaceOnUse">
        <path fill="#fff" d="M-1-1h57v12H-1z"/>
        <path d="M1.75 9.25V7.5H0V2.25h1.75V.5h10.5v1.75H3.5V7.5h8.75v1.75H1.75Zm14 0V7.5H14V5.75h1.75V4h7V2.25h-7V.5h8.75v1.75h1.75v7h-10.5ZM17.5 7.5h5.25V5.75H17.5V7.5Zm15.75-5.25H35V4h-1.75v5.25h-3.5V.5h3.5v1.75Zm7-1.75v1.75H35V.5h5.25Zm3.5 8.75V7.5H42V2.25h1.75V.5h8.75v1.75h1.75v3.5H45.5V7.5h7v1.75h-8.75ZM45.5 4h5.25V2.25H45.5V4Z"/>
      </mask>
      <path fill="#000" d="M1.75 9.25V7.5H0V2.25h1.75V.5h10.5v1.75H3.5V7.5h8.75v1.75H1.75Zm14 0V7.5H14V5.75h1.75V4h7V2.25h-7V.5h8.75v1.75h1.75v7h-10.5ZM17.5 7.5h5.25V5.75H17.5V7.5Zm15.75-5.25H35V4h-1.75v5.25h-3.5V.5h3.5v1.75Zm7-1.75v1.75H35V.5h5.25Zm3.5 8.75V7.5H42V2.25h1.75V.5h8.75v1.75h1.75v3.5H45.5V7.5h7v1.75h-8.75ZM45.5 4h5.25V2.25H45.5V4Z"/>
      <path fill="#fff" d="M1.75 9.25h-1v1h1v-1Zm0-1.75h1v-1h-1v1ZM0 7.5h-1v1h1v-1Zm0-5.25v-1h-1v1h1Zm1.75 0v1h1v-1h-1Zm0-1.75v-1h-1v1h1Zm10.5 0h1v-1h-1v1Zm0 1.75v1h1v-1h-1Zm-8.75 0v-1h-1v1h1Zm0 5.25h-1v1h1v-1Zm8.75 0h1v-1h-1v1Zm0 1.75v1h1v-1h-1Zm-9.5 0V7.5h-2v1.75h2Zm-1-2.75H0v2h1.75v-2ZM1 7.5V2.25h-2V7.5h2ZM0 3.25h1.75v-2H0v2Zm2.75-1V.5h-2v1.75h2Zm-1-.75h10.5v-2H1.75v2Zm9.5-1v1.75h2V.5h-2Zm1 .75H3.5v2h8.75v-2Zm-9.75 1V7.5h2V2.25h-2Zm1 6.25h8.75v-2H3.5v2Zm7.75-1v1.75h2V7.5h-2Zm1 .75H1.75v2h10.5v-2Zm3.5 1h-1v1h1v-1Zm0-1.75h1v-1h-1v1ZM14 7.5h-1v1h1v-1Zm0-1.75v-1h-1v1h1Zm1.75 0v1h1v-1h-1Zm0-1.75V3h-1v1h1Zm7 0v1h1V4h-1Zm0-1.75h1v-1h-1v1Zm-7 0h-1v1h1v-1Zm0-1.75v-1h-1v1h1Zm8.75 0h1v-1h-1v1Zm0 1.75h-1v1h1v-1Zm1.75 0h1v-1h-1v1Zm0 7v1h1v-1h-1ZM17.5 7.5h-1v1h1v-1Zm5.25 0v1h1v-1h-1Zm0-1.75h1v-1h-1v1Zm-5.25 0v-1h-1v1h1Zm-.75 3.5V7.5h-2v1.75h2Zm-1-2.75H14v2h1.75v-2Zm-.75 1V5.75h-2V7.5h2Zm-1-.75h1.75v-2H14v2Zm2.75-1V4h-2v1.75h2Zm-1-.75h7V3h-7v2Zm8-1V2.25h-2V4h2Zm-1-2.75h-7v2h7v-2Zm-6 1V.5h-2v1.75h2Zm-1-.75h8.75v-2h-8.75v2Zm7.75-1v1.75h2V.5h-2Zm1 2.75h1.75v-2H24.5v2Zm.75-1v7h2v-7h-2Zm1 6h-10.5v2h10.5v-2Zm-8.75.25h5.25v-2H17.5v2Zm6.25-1V5.75h-2V7.5h2Zm-1-2.75H17.5v2h5.25v-2Zm-6.25 1V7.5h2V5.75h-2Zm16.75-3.5h-1v1h1v-1Zm1.75 0h1v-1h-1v1ZM35 4v1h1V4h-1Zm-1.75 0V3h-1v1h1Zm0 5.25v1h1v-1h-1Zm-3.5 0h-1v1h1v-1Zm0-8.75v-1h-1v1h1Zm3.5 0h1v-1h-1v1Zm7 0h1v-1h-1v1Zm0 1.75v1h1v-1h-1Zm-5.25 0h-1v1h1v-1ZM35 .5v-1h-1v1h1Zm-1.75 2.75H35v-2h-1.75v2Zm.75-1V4h2V2.25h-2ZM35 3h-1.75v2H35V3Zm-2.75 1v5.25h2V4h-2Zm1 4.25h-3.5v2h3.5v-2Zm-2.5 1V.5h-2v8.75h2Zm-1-7.75h3.5v-2h-3.5v2Zm2.5-1v1.75h2V.5h-2Zm7 0v1.75h2V.5h-2Zm1 .75H35v2h5.25v-2Zm-4.25 1V.5h-2v1.75h2Zm-1-.75h5.25v-2H35v2Zm8.75 7.75h-1v1h1v-1Zm0-1.75h1v-1h-1v1ZM42 7.5h-1v1h1v-1Zm0-5.25v-1h-1v1h1Zm1.75 0v1h1v-1h-1Zm0-1.75v-1h-1v1h1Zm8.75 0h1v-1h-1v1Zm0 1.75h-1v1h1v-1Zm1.75 0h1v-1h-1v1Zm0 3.5v1h1v-1h-1Zm-8.75 0v-1h-1v1h1Zm0 1.75h-1v1h1v-1Zm7 0h1v-1h-1v1Zm0 1.75v1h1v-1h-1ZM45.5 4h-1v1h1V4Zm5.25 0v1h1V4h-1Zm0-1.75h1v-1h-1v1Zm-5.25 0v-1h-1v1h1Zm-.75 7V7.5h-2v1.75h2Zm-1-2.75H42v2h1.75v-2Zm-.75 1V2.25h-2V7.5h2Zm-1-4.25h1.75v-2H42v2Zm2.75-1V.5h-2v1.75h2Zm-1-.75h8.75v-2h-8.75v2Zm7.75-1v1.75h2V.5h-2Zm1 2.75h1.75v-2H52.5v2Zm.75-1v3.5h2v-3.5h-2Zm1 2.5H45.5v2h8.75v-2Zm-9.75 1V7.5h2V5.75h-2Zm1 2.75h7v-2h-7v2Zm6-1v1.75h2V7.5h-2Zm1 .75h-8.75v2h8.75v-2ZM45.5 5h5.25V3H45.5v2Zm6.25-1V2.25h-2V4h2Zm-1-2.75H45.5v2h5.25v-2Zm-6.25 1V4h2V2.25h-2Z" mask="url(#a)"/>
    </g>
  </symbol>
  <symbol id="care-watermark" width="122" height="14" fill="currentColor">
    <g opacity=".5" style="mix-blend-mode:hard-light">
      <mask id="a" width="124" height="16" x="-1" y="-1" fill="#000" maskUnits="userSpaceOnUse">
        <path fill="#fff" d="M-1-1h124v16H-1z"/>
        <path d="M6 12.25V10.5H4.25V8.75H2.5V7H.75V5.25H2.5V3.5h1.75V1.75H6V0h3.5v1.75H7.75V3.5H6v1.75H4.25V7H6v1.75h1.75v1.75H9.5v1.75H6Zm7 0V10.5h8.75V8.75h-7V7H13V5.25h1.75V3.5h8.75v1.75h-7V7h7v1.75h1.75v1.75H23.5v1.75H13Zm15.75 0V10.5H27v-7h3.5v7h5.25v-7h3.5v8.75h-10.5ZM41 14V3.5h10.5v1.75h1.75v3.5H51.5v1.75h-7V14H41Zm3.5-5.25h5.25v-3.5H44.5v3.5ZM55 14V3.5h10.5v1.75h1.75v3.5H65.5v1.75h-7V14H55Zm3.5-5.25h5.25v-3.5H58.5v3.5Zm12.25 3.5V10.5H69V5.25h1.75V3.5h8.75v1.75h1.75v5.25H79.5v1.75h-8.75Zm1.75-1.75h5.25V5.25H72.5v5.25Zm15.75-5.25H90V7h-1.75v5.25h-3.5V3.5h3.5v1.75Zm7-1.75v1.75H90V3.5h5.25Zm7 8.75v-7h-3.5V3.5h3.5V0h3.5v3.5h3.5v1.75h-3.5v7h-3.5Zm10.5 0V10.5h1.75V8.75h1.75V7H118V5.25h-1.75V3.5h-1.75V1.75h-1.75V0h3.5v1.75H118V3.5h1.75v1.75h1.75V7h-1.75v1.75H118v1.75h-1.75v1.75h-3.5Z"/>
      </mask>
      <path fill="#000" d="M6 12.25V10.5H4.25V8.75H2.5V7H.75V5.25H2.5V3.5h1.75V1.75H6V0h3.5v1.75H7.75V3.5H6v1.75H4.25V7H6v1.75h1.75v1.75H9.5v1.75H6Zm7 0V10.5h8.75V8.75h-7V7H13V5.25h1.75V3.5h8.75v1.75h-7V7h7v1.75h1.75v1.75H23.5v1.75H13Zm15.75 0V10.5H27v-7h3.5v7h5.25v-7h3.5v8.75h-10.5ZM41 14V3.5h10.5v1.75h1.75v3.5H51.5v1.75h-7V14H41Zm3.5-5.25h5.25v-3.5H44.5v3.5ZM55 14V3.5h10.5v1.75h1.75v3.5H65.5v1.75h-7V14H55Zm3.5-5.25h5.25v-3.5H58.5v3.5Zm12.25 3.5V10.5H69V5.25h1.75V3.5h8.75v1.75h1.75v5.25H79.5v1.75h-8.75Zm1.75-1.75h5.25V5.25H72.5v5.25Zm15.75-5.25H90V7h-1.75v5.25h-3.5V3.5h3.5v1.75Zm7-1.75v1.75H90V3.5h5.25Zm7 8.75v-7h-3.5V3.5h3.5V0h3.5v3.5h3.5v1.75h-3.5v7h-3.5Zm10.5 0V10.5h1.75V8.75h1.75V7H118V5.25h-1.75V3.5h-1.75V1.75h-1.75V0h3.5v1.75H118V3.5h1.75v1.75h1.75V7h-1.75v1.75H118v1.75h-1.75v1.75h-3.5Z"/>
      <path fill="#fff" d="M6 12.25H5v1h1v-1Zm0-1.75h1v-1H6v1Zm-1.75 0h-1v1h1v-1Zm0-1.75h1v-1h-1v1Zm-1.75 0h-1v1h1v-1ZM2.5 7h1V6h-1v1ZM.75 7h-1v1h1V7Zm0-1.75v-1h-1v1h1Zm1.75 0v1h1v-1h-1Zm0-1.75v-1h-1v1h1Zm1.75 0v1h1v-1h-1Zm0-1.75v-1h-1v1h1Zm1.75 0v1h1v-1H6ZM6 0v-1H5v1h1Zm3.5 0h1v-1h-1v1Zm0 1.75v1h1v-1h-1Zm-1.75 0v-1h-1v1h1Zm0 1.75v1h1v-1h-1ZM6 3.5v-1H5v1h1Zm0 1.75v1h1v-1H6Zm-1.75 0v-1h-1v1h1Zm0 1.75h-1v1h1V7ZM6 7h1V6H6v1Zm0 1.75H5v1h1v-1Zm1.75 0h1v-1h-1v1Zm0 1.75h-1v1h1v-1Zm1.75 0h1v-1h-1v1Zm0 1.75v1h1v-1h-1Zm-2.5 0V10.5H5v1.75h2ZM6 9.5H4.25v2H6v-2Zm-.75 1V8.75h-2v1.75h2Zm-1-2.75H2.5v2h1.75v-2Zm-.75 1V7h-2v1.75h2ZM2.5 6H.75v2H2.5V6Zm-.75 1V5.25h-2V7h2Zm-1-.75H2.5v-2H.75v2Zm2.75-1V3.5h-2v1.75h2Zm-1-.75h1.75v-2H2.5v2Zm2.75-1V1.75h-2V3.5h2Zm-1-.75H6v-2H4.25v2Zm2.75-1V0H5v1.75h2ZM6 1h3.5v-2H6v2Zm2.5-1v1.75h2V0h-2Zm1 .75H7.75v2H9.5v-2Zm-2.75 1V3.5h2V1.75h-2Zm1 .75H6v2h1.75v-2ZM5 3.5v1.75h2V3.5H5Zm1 .75H4.25v2H6v-2Zm-2.75 1V7h2V5.25h-2Zm1 2.75H6V6H4.25v2ZM5 7v1.75h2V7H5Zm1 2.75h1.75v-2H6v2Zm.75-1v1.75h2V8.75h-2Zm1 2.75H9.5v-2H7.75v2Zm.75-1v1.75h2V10.5h-2Zm1 .75H6v2h3.5v-2Zm3.5 1h-1v1h1v-1Zm0-1.75v-1h-1v1h1Zm8.75 0v1h1v-1h-1Zm0-1.75h1v-1h-1v1Zm-7 0h-1v1h1v-1Zm0-1.75h1V6h-1v1ZM13 7h-1v1h1V7Zm0-1.75v-1h-1v1h1Zm1.75 0v1h1v-1h-1Zm0-1.75v-1h-1v1h1Zm8.75 0h1v-1h-1v1Zm0 1.75v1h1v-1h-1Zm-7 0v-1h-1v1h1Zm0 1.75h-1v1h1V7Zm7 0h1V6h-1v1Zm0 1.75h-1v1h1v-1Zm1.75 0h1v-1h-1v1Zm0 1.75v1h1v-1h-1Zm-1.75 0v-1h-1v1h1Zm0 1.75v1h1v-1h-1Zm-9.5 0V10.5h-2v1.75h2Zm-1-.75h8.75v-2H13v2Zm9.75-1V8.75h-2v1.75h2Zm-1-2.75h-7v2h7v-2Zm-6 1V7h-2v1.75h2Zm-1-2.75H13v2h1.75V6ZM14 7V5.25h-2V7h2Zm-1-.75h1.75v-2H13v2Zm2.75-1V3.5h-2v1.75h2Zm-1-.75h8.75v-2h-8.75v2Zm7.75-1v1.75h2V3.5h-2Zm1 .75h-7v2h7v-2Zm-8 1V7h2V5.25h-2Zm1 2.75h7V6h-7v2Zm6-1v1.75h2V7h-2Zm1 2.75h1.75v-2H23.5v2Zm.75-1v1.75h2V8.75h-2Zm1 .75H23.5v2h1.75v-2Zm-2.75 1v1.75h2V10.5h-2Zm1 .75H13v2h10.5v-2Zm5.25 1h-1v1h1v-1Zm0-1.75h1v-1h-1v1Zm-1.75 0h-1v1h1v-1Zm0-7v-1h-1v1h1Zm3.5 0h1v-1h-1v1Zm0 7h-1v1h1v-1Zm5.25 0v1h1v-1h-1Zm0-7v-1h-1v1h1Zm3.5 0h1v-1h-1v1Zm0 8.75v1h1v-1h-1Zm-9.5 0V10.5h-2v1.75h2Zm-1-2.75H27v2h1.75v-2Zm-.75 1v-7h-2v7h2Zm-1-6h3.5v-2H27v2Zm2.5-1v7h2v-7h-2Zm1 8h5.25v-2H30.5v2Zm6.25-1v-7h-2v7h2Zm-1-6h3.5v-2h-3.5v2Zm2.5-1v8.75h2V3.5h-2Zm1 7.75h-10.5v2h10.5v-2ZM41 14h-1v1h1v-1Zm0-10.5v-1h-1v1h1Zm10.5 0h1v-1h-1v1Zm0 1.75h-1v1h1v-1Zm1.75 0h1v-1h-1v1Zm0 3.5v1h1v-1h-1Zm-1.75 0v-1h-1v1h1Zm0 1.75v1h1v-1h-1Zm-7 0v-1h-1v1h1Zm0 3.5v1h1v-1h-1Zm0-5.25h-1v1h1v-1Zm5.25 0v1h1v-1h-1Zm0-3.5h1v-1h-1v1Zm-5.25 0v-1h-1v1h1ZM42 14V3.5h-2V14h2Zm-1-9.5h10.5v-2H41v2Zm9.5-1v1.75h2V3.5h-2Zm1 2.75h1.75v-2H51.5v2Zm.75-1v3.5h2v-3.5h-2Zm1 2.5H51.5v2h1.75v-2Zm-2.75 1v1.75h2V8.75h-2Zm1 .75h-7v2h7v-2Zm-8 1V14h2v-3.5h-2Zm1 2.5H41v2h3.5v-2Zm0-3.25h5.25v-2H44.5v2Zm6.25-1v-3.5h-2v3.5h2Zm-1-4.5H44.5v2h5.25v-2Zm-6.25 1v3.5h2v-3.5h-2ZM55 14h-1v1h1v-1Zm0-10.5v-1h-1v1h1Zm10.5 0h1v-1h-1v1Zm0 1.75h-1v1h1v-1Zm1.75 0h1v-1h-1v1Zm0 3.5v1h1v-1h-1Zm-1.75 0v-1h-1v1h1Zm0 1.75v1h1v-1h-1Zm-7 0v-1h-1v1h1Zm0 3.5v1h1v-1h-1Zm0-5.25h-1v1h1v-1Zm5.25 0v1h1v-1h-1Zm0-3.5h1v-1h-1v1Zm-5.25 0v-1h-1v1h1ZM56 14V3.5h-2V14h2Zm-1-9.5h10.5v-2H55v2Zm9.5-1v1.75h2V3.5h-2Zm1 2.75h1.75v-2H65.5v2Zm.75-1v3.5h2v-3.5h-2Zm1 2.5H65.5v2h1.75v-2Zm-2.75 1v1.75h2V8.75h-2Zm1 .75h-7v2h7v-2Zm-8 1V14h2v-3.5h-2Zm1 2.5H55v2h3.5v-2Zm0-3.25h5.25v-2H58.5v2Zm6.25-1v-3.5h-2v3.5h2Zm-1-4.5H58.5v2h5.25v-2Zm-6.25 1v3.5h2v-3.5h-2Zm13.25 7h-1v1h1v-1Zm0-1.75h1v-1h-1v1Zm-1.75 0h-1v1h1v-1Zm0-5.25v-1h-1v1h1Zm1.75 0v1h1v-1h-1Zm0-1.75v-1h-1v1h1Zm8.75 0h1v-1h-1v1Zm0 1.75h-1v1h1v-1Zm1.75 0h1v-1h-1v1Zm0 5.25v1h1v-1h-1Zm-1.75 0v-1h-1v1h1Zm0 1.75v1h1v-1h-1Zm-7-1.75h-1v1h1v-1Zm5.25 0v1h1v-1h-1Zm0-5.25h1v-1h-1v1Zm-5.25 0v-1h-1v1h1Zm-.75 7V10.5h-2v1.75h2Zm-1-2.75H69v2h1.75v-2Zm-.75 1V5.25h-2v5.25h2Zm-1-4.25h1.75v-2H69v2Zm2.75-1V3.5h-2v1.75h2Zm-1-.75h8.75v-2h-8.75v2Zm7.75-1v1.75h2V3.5h-2Zm1 2.75h1.75v-2H79.5v2Zm.75-1v5.25h2V5.25h-2Zm1 4.25H79.5v2h1.75v-2Zm-2.75 1v1.75h2V10.5h-2Zm1 .75h-8.75v2h8.75v-2Zm-7 .25h5.25v-2H72.5v2Zm6.25-1V5.25h-2v5.25h2Zm-1-6.25H72.5v2h5.25v-2Zm-6.25 1v5.25h2V5.25h-2Zm16.75 0h-1v1h1v-1Zm1.75 0h1v-1h-1v1ZM90 7v1h1V7h-1Zm-1.75 0V6h-1v1h1Zm0 5.25v1h1v-1h-1Zm-3.5 0h-1v1h1v-1Zm0-8.75v-1h-1v1h1Zm3.5 0h1v-1h-1v1Zm7 0h1v-1h-1v1Zm0 1.75v1h1v-1h-1Zm-5.25 0h-1v1h1v-1Zm0-1.75v-1h-1v1h1Zm-1.75 2.75H90v-2h-1.75v2Zm.75-1V7h2V5.25h-2ZM90 6h-1.75v2H90V6Zm-2.75 1v5.25h2V7h-2Zm1 4.25h-3.5v2h3.5v-2Zm-2.5 1V3.5h-2v8.75h2Zm-1-7.75h3.5v-2h-3.5v2Zm2.5-1v1.75h2V3.5h-2Zm7 0v1.75h2V3.5h-2Zm1 .75H90v2h5.25v-2Zm-4.25 1V3.5h-2v1.75h2Zm-1-.75h5.25v-2H90v2Zm12.25 7.75h-1v1h1v-1Zm0-7h1v-1h-1v1Zm-3.5 0h-1v1h1v-1Zm0-1.75v-1h-1v1h1Zm3.5 0v1h1v-1h-1Zm0-3.5v-1h-1v1h1Zm3.5 0h1v-1h-1v1Zm0 3.5h-1v1h1v-1Zm3.5 0h1v-1h-1v1Zm0 1.75v1h1v-1h-1Zm-3.5 0v-1h-1v1h1Zm0 7v1h1v-1h-1Zm-2.5 0v-7h-2v7h2Zm-1-8h-3.5v2h3.5v-2Zm-2.5 1V3.5h-2v1.75h2Zm-1-.75h3.5v-2h-3.5v2Zm4.5-1V0h-2v3.5h2Zm-1-2.5h3.5v-2h-3.5v2Zm2.5-1v3.5h2V0h-2Zm1 4.5h3.5v-2h-3.5v2Zm2.5-1v1.75h2V3.5h-2Zm1 .75h-3.5v2h3.5v-2Zm-4.5 1v7h2v-7h-2Zm1 6h-3.5v2h3.5v-2Zm7 1h-1v1h1v-1Zm0-1.75v-1h-1v1h1Zm1.75 0v1h1v-1h-1Zm0-1.75v-1h-1v1h1Zm1.75 0v1h1v-1h-1Zm0-1.75V6h-1v1h1ZM118 7v1h1V7h-1Zm0-1.75h1v-1h-1v1Zm-1.75 0h-1v1h1v-1Zm0-1.75h1v-1h-1v1Zm-1.75 0h-1v1h1v-1Zm0-1.75h1v-1h-1v1Zm-1.75 0h-1v1h1v-1Zm0-1.75v-1h-1v1h1Zm3.5 0h1v-1h-1v1Zm0 1.75h-1v1h1v-1Zm1.75 0h1v-1h-1v1Zm0 1.75h-1v1h1v-1Zm1.75 0h1v-1h-1v1Zm0 1.75h-1v1h1v-1Zm1.75 0h1v-1h-1v1Zm0 1.75v1h1V7h-1Zm-1.75 0V6h-1v1h1Zm0 1.75v1h1v-1h-1Zm-1.75 0v-1h-1v1h1Zm0 1.75v1h1v-1h-1Zm-1.75 0v-1h-1v1h1Zm0 1.75v1h1v-1h-1Zm-2.5 0V10.5h-2v1.75h2Zm-1-.75h1.75v-2h-1.75v2Zm2.75-1V8.75h-2v1.75h2Zm-1-.75h1.75v-2h-1.75v2Zm2.75-1V7h-2v1.75h2Zm-1-.75H118V6h-1.75v2ZM119 7V5.25h-2V7h2Zm-1-2.75h-1.75v2H118v-2Zm-.75 1V3.5h-2v1.75h2Zm-1-2.75h-1.75v2h1.75v-2Zm-.75 1V1.75h-2V3.5h2Zm-1-2.75h-1.75v2h1.75v-2Zm-.75 1V0h-2v1.75h2Zm-1-.75h3.5v-2h-3.5v2Zm2.5-1v1.75h2V0h-2Zm1 2.75H118v-2h-1.75v2Zm.75-1V3.5h2V1.75h-2Zm1 2.75h1.75v-2H118v2Zm.75-1v1.75h2V3.5h-2Zm1 2.75h1.75v-2h-1.75v2Zm.75-1V7h2V5.25h-2Zm1 .75h-1.75v2h1.75V6Zm-2.75 1v1.75h2V7h-2Zm1 .75H118v2h1.75v-2Zm-2.75 1v1.75h2V8.75h-2Zm1 .75h-1.75v2H118v-2Zm-2.75 1v1.75h2V10.5h-2Zm1 .75h-3.5v2h3.5v-2Z" mask="url(#a)"/>
    </g>
  </symbol>
  <symbol id="support-watermark"  width="276" height="14" fill="currentColor">
    <g opacity=".5" style="mix-blend-mode:hard-light">
      <mask id="a" width="278" height="16" x="-1" y="-1" fill="#000" maskUnits="userSpaceOnUse">
        <path fill="#fff" d="M-1-1h278v16H-1z"/>
        <path d="M6 12.25V10.5H4.25V8.75H2.5V7H.75V5.25H2.5V3.5h1.75V1.75H6V0h3.5v1.75H7.75V3.5H6v1.75H4.25V7H6v1.75h1.75v1.75H9.5v1.75H6Zm8.75 0V10.5h3.5V1.75H16.5V0h5.25v10.5h3.5v1.75h-10.5Zm17.5-10.5V0h3.5v1.75h-3.5Zm-3.5 10.5V10.5h3.5V5.25H30.5V3.5h5.25v7h3.5v1.75h-10.5Zm17.5 0v-7h-3.5V3.5h3.5V1.75H48V0h5.25v1.75h-3.5V3.5h3.5v1.75h-3.5v7h-3.5Zm10.5 0V10.5H55V5.25h1.75V3.5h8.75v1.75h1.75v3.5H58.5v1.75h7v1.75h-8.75ZM58.5 7h5.25V5.25H58.5V7ZM69 12.25V10.5h8.75V8.75h-7V7H69V5.25h1.75V3.5h8.75v1.75h-7V7h7v1.75h1.75v1.75H79.5v1.75H69ZM84.75 7V5.25h10.5V7h-10.5ZM97 12.25V10.5h8.75V8.75h-7V7H97V5.25h1.75V3.5h8.75v1.75h-7V7h7v1.75h1.75v1.75h-1.75v1.75H97Zm19.25 0v-7h-3.5V3.5h3.5V0h3.5v3.5h3.5v1.75h-3.5v7h-3.5Zm10.5 1.75v-1.75h7V10.5h-7V8.75H125V3.5h3.5v5.25h5.25V3.5h3.5v8.75h-1.75V14h-8.75Zm14-1.75V10.5h3.5V1.75h-1.75V0h5.25v10.5h3.5v1.75h-10.5Zm14 0V10.5H153V5.25h1.75V3.5h8.75v1.75h1.75v3.5h-8.75v1.75h7v1.75h-8.75ZM156.5 7h5.25V5.25h-5.25V7Zm14-1.75v-3.5h3.5v3.5h-3.5Zm0 5.25V7h3.5v3.5h-3.5Zm24.5 1.75V3.5h10.5v1.75h1.75v7h-3.5v-7h-5.25v7H195Zm15.75 0V10.5H209V5.25h1.75V3.5h8.75v1.75h1.75v5.25h-1.75v1.75h-8.75Zm1.75-1.75h5.25V5.25h-5.25v5.25Zm10.5 1.75V3.5h10.5v1.75h1.75v7h-3.5v-7h-5.25v7H223Zm15.75 0V10.5H237V5.25h1.75V3.5h8.75v1.75h1.75v3.5h-8.75v1.75h7v1.75h-8.75ZM240.5 7h5.25V5.25h-5.25V7Zm14-1.75v-3.5h3.5v3.5h-3.5Zm-1.75 7V10.5h1.75V7h3.5v3.5h-1.75v1.75h-3.5Zm14 0V10.5h1.75V8.75h1.75V7H272V5.25h-1.75V3.5h-1.75V1.75h-1.75V0h3.5v1.75H272V3.5h1.75v1.75h1.75V7h-1.75v1.75H272v1.75h-1.75v1.75h-3.5Z"/>
      </mask>
      <path fill="#000" d="M6 12.25V10.5H4.25V8.75H2.5V7H.75V5.25H2.5V3.5h1.75V1.75H6V0h3.5v1.75H7.75V3.5H6v1.75H4.25V7H6v1.75h1.75v1.75H9.5v1.75H6Zm8.75 0V10.5h3.5V1.75H16.5V0h5.25v10.5h3.5v1.75h-10.5Zm17.5-10.5V0h3.5v1.75h-3.5Zm-3.5 10.5V10.5h3.5V5.25H30.5V3.5h5.25v7h3.5v1.75h-10.5Zm17.5 0v-7h-3.5V3.5h3.5V1.75H48V0h5.25v1.75h-3.5V3.5h3.5v1.75h-3.5v7h-3.5Zm10.5 0V10.5H55V5.25h1.75V3.5h8.75v1.75h1.75v3.5H58.5v1.75h7v1.75h-8.75ZM58.5 7h5.25V5.25H58.5V7ZM69 12.25V10.5h8.75V8.75h-7V7H69V5.25h1.75V3.5h8.75v1.75h-7V7h7v1.75h1.75v1.75H79.5v1.75H69ZM84.75 7V5.25h10.5V7h-10.5ZM97 12.25V10.5h8.75V8.75h-7V7H97V5.25h1.75V3.5h8.75v1.75h-7V7h7v1.75h1.75v1.75h-1.75v1.75H97Zm19.25 0v-7h-3.5V3.5h3.5V0h3.5v3.5h3.5v1.75h-3.5v7h-3.5Zm10.5 1.75v-1.75h7V10.5h-7V8.75H125V3.5h3.5v5.25h5.25V3.5h3.5v8.75h-1.75V14h-8.75Zm14-1.75V10.5h3.5V1.75h-1.75V0h5.25v10.5h3.5v1.75h-10.5Zm14 0V10.5H153V5.25h1.75V3.5h8.75v1.75h1.75v3.5h-8.75v1.75h7v1.75h-8.75ZM156.5 7h5.25V5.25h-5.25V7Zm14-1.75v-3.5h3.5v3.5h-3.5Zm0 5.25V7h3.5v3.5h-3.5Zm24.5 1.75V3.5h10.5v1.75h1.75v7h-3.5v-7h-5.25v7H195Zm15.75 0V10.5H209V5.25h1.75V3.5h8.75v1.75h1.75v5.25h-1.75v1.75h-8.75Zm1.75-1.75h5.25V5.25h-5.25v5.25Zm10.5 1.75V3.5h10.5v1.75h1.75v7h-3.5v-7h-5.25v7H223Zm15.75 0V10.5H237V5.25h1.75V3.5h8.75v1.75h1.75v3.5h-8.75v1.75h7v1.75h-8.75ZM240.5 7h5.25V5.25h-5.25V7Zm14-1.75v-3.5h3.5v3.5h-3.5Zm-1.75 7V10.5h1.75V7h3.5v3.5h-1.75v1.75h-3.5Zm14 0V10.5h1.75V8.75h1.75V7H272V5.25h-1.75V3.5h-1.75V1.75h-1.75V0h3.5v1.75H272V3.5h1.75v1.75h1.75V7h-1.75v1.75H272v1.75h-1.75v1.75h-3.5Z"/>
      <path fill="#fff" d="M6 12.25H5v1h1v-1Zm0-1.75h1v-1H6v1Zm-1.75 0h-1v1h1v-1Zm0-1.75h1v-1h-1v1Zm-1.75 0h-1v1h1v-1ZM2.5 7h1V6h-1v1ZM.75 7h-1v1h1V7Zm0-1.75v-1h-1v1h1Zm1.75 0v1h1v-1h-1Zm0-1.75v-1h-1v1h1Zm1.75 0v1h1v-1h-1Zm0-1.75v-1h-1v1h1Zm1.75 0v1h1v-1H6ZM6 0v-1H5v1h1Zm3.5 0h1v-1h-1v1Zm0 1.75v1h1v-1h-1Zm-1.75 0v-1h-1v1h1Zm0 1.75v1h1v-1h-1ZM6 3.5v-1H5v1h1Zm0 1.75v1h1v-1H6Zm-1.75 0v-1h-1v1h1Zm0 1.75h-1v1h1V7ZM6 7h1V6H6v1Zm0 1.75H5v1h1v-1Zm1.75 0h1v-1h-1v1Zm0 1.75h-1v1h1v-1Zm1.75 0h1v-1h-1v1Zm0 1.75v1h1v-1h-1Zm-2.5 0V10.5H5v1.75h2ZM6 9.5H4.25v2H6v-2Zm-.75 1V8.75h-2v1.75h2Zm-1-2.75H2.5v2h1.75v-2Zm-.75 1V7h-2v1.75h2ZM2.5 6H.75v2H2.5V6Zm-.75 1V5.25h-2V7h2Zm-1-.75H2.5v-2H.75v2Zm2.75-1V3.5h-2v1.75h2Zm-1-.75h1.75v-2H2.5v2Zm2.75-1V1.75h-2V3.5h2Zm-1-.75H6v-2H4.25v2Zm2.75-1V0H5v1.75h2ZM6 1h3.5v-2H6v2Zm2.5-1v1.75h2V0h-2Zm1 .75H7.75v2H9.5v-2Zm-2.75 1V3.5h2V1.75h-2Zm1 .75H6v2h1.75v-2ZM5 3.5v1.75h2V3.5H5Zm1 .75H4.25v2H6v-2Zm-2.75 1V7h2V5.25h-2Zm1 2.75H6V6H4.25v2ZM5 7v1.75h2V7H5Zm1 2.75h1.75v-2H6v2Zm.75-1v1.75h2V8.75h-2Zm1 2.75H9.5v-2H7.75v2Zm.75-1v1.75h2V10.5h-2Zm1 .75H6v2h3.5v-2Zm5.25 1h-1v1h1v-1Zm0-1.75v-1h-1v1h1Zm3.5 0v1h1v-1h-1Zm0-8.75h1v-1h-1v1Zm-1.75 0h-1v1h1v-1Zm0-1.75v-1h-1v1h1Zm5.25 0h1v-1h-1v1Zm0 10.5h-1v1h1v-1Zm3.5 0h1v-1h-1v1Zm0 1.75v1h1v-1h-1Zm-9.5 0V10.5h-2v1.75h2Zm-1-.75h3.5v-2h-3.5v2Zm4.5-1V1.75h-2v8.75h2Zm-1-9.75H16.5v2h1.75v-2Zm-.75 1V0h-2v1.75h2Zm-1-.75h5.25v-2H16.5v2Zm4.25-1v10.5h2V0h-2Zm1 11.5h3.5v-2h-3.5v2Zm2.5-1v1.75h2V10.5h-2Zm1 .75h-10.5v2h10.5v-2Zm7-9.5h-1v1h1v-1Zm0-1.75v-1h-1v1h1Zm3.5 0h1v-1h-1v1Zm0 1.75v1h1v-1h-1Zm-7 10.5h-1v1h1v-1Zm0-1.75v-1h-1v1h1Zm3.5 0v1h1v-1h-1Zm0-5.25h1v-1h-1v1Zm-1.75 0h-1v1h1v-1Zm0-1.75v-1h-1v1h1Zm5.25 0h1v-1h-1v1Zm0 7h-1v1h1v-1Zm3.5 0h1v-1h-1v1Zm0 1.75v1h1v-1h-1Zm-6-10.5V0h-2v1.75h2Zm-1-.75h3.5v-2h-3.5v2Zm2.5-1v1.75h2V0h-2Zm1 .75h-3.5v2h3.5v-2Zm-6 11.5V10.5h-2v1.75h2Zm-1-.75h3.5v-2h-3.5v2Zm4.5-1V5.25h-2v5.25h2Zm-1-6.25H30.5v2h1.75v-2Zm-.75 1V3.5h-2v1.75h2Zm-1-.75h5.25v-2H30.5v2Zm4.25-1v7h2v-7h-2Zm1 8h3.5v-2h-3.5v2Zm2.5-1v1.75h2V10.5h-2Zm1 .75h-10.5v2h10.5v-2Zm7 1h-1v1h1v-1Zm0-7h1v-1h-1v1Zm-3.5 0h-1v1h1v-1Zm0-1.75v-1h-1v1h1Zm3.5 0v1h1v-1h-1Zm0-1.75v-1h-1v1h1Zm1.75 0v1h1v-1h-1ZM48 0v-1h-1v1h1Zm5.25 0h1v-1h-1v1Zm0 1.75v1h1v-1h-1Zm-3.5 0v-1h-1v1h1Zm0 1.75h-1v1h1v-1Zm3.5 0h1v-1h-1v1Zm0 1.75v1h1v-1h-1Zm-3.5 0v-1h-1v1h1Zm0 7v1h1v-1h-1Zm-2.5 0v-7h-2v7h2Zm-1-8h-3.5v2h3.5v-2Zm-2.5 1V3.5h-2v1.75h2Zm-1-.75h3.5v-2h-3.5v2Zm4.5-1V1.75h-2V3.5h2Zm-1-.75H48v-2h-1.75v2Zm2.75-1V0h-2v1.75h2ZM48 1h5.25v-2H48v2Zm4.25-1v1.75h2V0h-2Zm1 .75h-3.5v2h3.5v-2Zm-4.5 1V3.5h2V1.75h-2Zm1 2.75h3.5v-2h-3.5v2Zm2.5-1v1.75h2V3.5h-2Zm1 .75h-3.5v2h3.5v-2Zm-4.5 1v7h2v-7h-2Zm1 6h-3.5v2h3.5v-2Zm7 1h-1v1h1v-1Zm0-1.75h1v-1h-1v1Zm-1.75 0h-1v1h1v-1Zm0-5.25v-1h-1v1h1Zm1.75 0v1h1v-1h-1Zm0-1.75v-1h-1v1h1Zm8.75 0h1v-1h-1v1Zm0 1.75h-1v1h1v-1Zm1.75 0h1v-1h-1v1Zm0 3.5v1h1v-1h-1Zm-8.75 0v-1h-1v1h1Zm0 1.75h-1v1h1v-1Zm7 0h1v-1h-1v1Zm0 1.75v1h1v-1h-1ZM58.5 7h-1v1h1V7Zm5.25 0v1h1V7h-1Zm0-1.75h1v-1h-1v1Zm-5.25 0v-1h-1v1h1Zm-.75 7V10.5h-2v1.75h2Zm-1-2.75H55v2h1.75v-2Zm-.75 1V5.25h-2v5.25h2Zm-1-4.25h1.75v-2H55v2Zm2.75-1V3.5h-2v1.75h2Zm-1-.75h8.75v-2h-8.75v2Zm7.75-1v1.75h2V3.5h-2Zm1 2.75h1.75v-2H65.5v2Zm.75-1v3.5h2v-3.5h-2Zm1 2.5H58.5v2h8.75v-2Zm-9.75 1v1.75h2V8.75h-2Zm1 2.75h7v-2h-7v2Zm6-1v1.75h2V10.5h-2Zm1 .75h-8.75v2h8.75v-2ZM58.5 8h5.25V6H58.5v2Zm6.25-1V5.25h-2V7h2Zm-1-2.75H58.5v2h5.25v-2Zm-6.25 1V7h2V5.25h-2Zm11.5 7h-1v1h1v-1Zm0-1.75v-1h-1v1h1Zm8.75 0v1h1v-1h-1Zm0-1.75h1v-1h-1v1Zm-7 0h-1v1h1v-1Zm0-1.75h1V6h-1v1ZM69 7h-1v1h1V7Zm0-1.75v-1h-1v1h1Zm1.75 0v1h1v-1h-1Zm0-1.75v-1h-1v1h1Zm8.75 0h1v-1h-1v1Zm0 1.75v1h1v-1h-1Zm-7 0v-1h-1v1h1Zm0 1.75h-1v1h1V7Zm7 0h1V6h-1v1Zm0 1.75h-1v1h1v-1Zm1.75 0h1v-1h-1v1Zm0 1.75v1h1v-1h-1Zm-1.75 0v-1h-1v1h1Zm0 1.75v1h1v-1h-1Zm-9.5 0V10.5h-2v1.75h2Zm-1-.75h8.75v-2H69v2Zm9.75-1V8.75h-2v1.75h2Zm-1-2.75h-7v2h7v-2Zm-6 1V7h-2v1.75h2Zm-1-2.75H69v2h1.75V6ZM70 7V5.25h-2V7h2Zm-1-.75h1.75v-2H69v2Zm2.75-1V3.5h-2v1.75h2Zm-1-.75h8.75v-2h-8.75v2Zm7.75-1v1.75h2V3.5h-2Zm1 .75h-7v2h7v-2Zm-8 1V7h2V5.25h-2Zm1 2.75h7V6h-7v2Zm6-1v1.75h2V7h-2Zm1 2.75h1.75v-2H79.5v2Zm.75-1v1.75h2V8.75h-2Zm1 .75H79.5v2h1.75v-2Zm-2.75 1v1.75h2V10.5h-2Zm1 .75H69v2h10.5v-2ZM84.75 7h-1v1h1V7Zm0-1.75v-1h-1v1h1Zm10.5 0h1v-1h-1v1Zm0 1.75v1h1V7h-1Zm-9.5 0V5.25h-2V7h2Zm-1-.75h10.5v-2h-10.5v2Zm9.5-1V7h2V5.25h-2Zm1 .75h-10.5v2h10.5V6ZM97 12.25h-1v1h1v-1Zm0-1.75v-1h-1v1h1Zm8.75 0v1h1v-1h-1Zm0-1.75h1v-1h-1v1Zm-7 0h-1v1h1v-1Zm0-1.75h1V6h-1v1ZM97 7h-1v1h1V7Zm0-1.75v-1h-1v1h1Zm1.75 0v1h1v-1h-1Zm0-1.75v-1h-1v1h1Zm8.75 0h1v-1h-1v1Zm0 1.75v1h1v-1h-1Zm-7 0v-1h-1v1h1Zm0 1.75h-1v1h1V7Zm7 0h1V6h-1v1Zm0 1.75h-1v1h1v-1Zm1.75 0h1v-1h-1v1Zm0 1.75v1h1v-1h-1Zm-1.75 0v-1h-1v1h1Zm0 1.75v1h1v-1h-1Zm-9.5 0V10.5h-2v1.75h2Zm-1-.75h8.75v-2H97v2Zm9.75-1V8.75h-2v1.75h2Zm-1-2.75h-7v2h7v-2Zm-6 1V7h-2v1.75h2Zm-1-2.75H97v2h1.75V6ZM98 7V5.25h-2V7h2Zm-1-.75h1.75v-2H97v2Zm2.75-1V3.5h-2v1.75h2Zm-1-.75h8.75v-2h-8.75v2Zm7.75-1v1.75h2V3.5h-2Zm1 .75h-7v2h7v-2Zm-8 1V7h2V5.25h-2Zm1 2.75h7V6h-7v2Zm6-1v1.75h2V7h-2Zm1 2.75h1.75v-2h-1.75v2Zm.75-1v1.75h2V8.75h-2Zm1 .75h-1.75v2h1.75v-2Zm-2.75 1v1.75h2V10.5h-2Zm1 .75H97v2h10.5v-2Zm8.75 1h-1v1h1v-1Zm0-7h1v-1h-1v1Zm-3.5 0h-1v1h1v-1Zm0-1.75v-1h-1v1h1Zm3.5 0v1h1v-1h-1Zm0-3.5v-1h-1v1h1Zm3.5 0h1v-1h-1v1Zm0 3.5h-1v1h1v-1Zm3.5 0h1v-1h-1v1Zm0 1.75v1h1v-1h-1Zm-3.5 0v-1h-1v1h1Zm0 7v1h1v-1h-1Zm-2.5 0v-7h-2v7h2Zm-1-8h-3.5v2h3.5v-2Zm-2.5 1V3.5h-2v1.75h2Zm-1-.75h3.5v-2h-3.5v2Zm4.5-1V0h-2v3.5h2Zm-1-2.5h3.5v-2h-3.5v2Zm2.5-1v3.5h2V0h-2Zm1 4.5h3.5v-2h-3.5v2Zm2.5-1v1.75h2V3.5h-2Zm1 .75h-3.5v2h3.5v-2Zm-4.5 1v7h2v-7h-2Zm1 6h-3.5v2h3.5v-2Zm7 2.75h-1v1h1v-1Zm0-1.75v-1h-1v1h1Zm7 0v1h1v-1h-1Zm0-1.75h1v-1h-1v1Zm-7 0h-1v1h1v-1Zm0-1.75h1v-1h-1v1Zm-1.75 0h-1v1h1v-1Zm0-5.25v-1h-1v1h1Zm3.5 0h1v-1h-1v1Zm0 5.25h-1v1h1v-1Zm5.25 0v1h1v-1h-1Zm0-5.25v-1h-1v1h1Zm3.5 0h1v-1h-1v1Zm0 8.75v1h1v-1h-1Zm-1.75 0v-1h-1v1h1Zm0 1.75v1h1v-1h-1Zm-7.75 0v-1.75h-2V14h2Zm-1-.75h7v-2h-7v2Zm8-1V10.5h-2v1.75h2Zm-1-2.75h-7v2h7v-2Zm-6 1V8.75h-2v1.75h2Zm-1-2.75H125v2h1.75v-2Zm-.75 1V3.5h-2v5.25h2Zm-1-4.25h3.5v-2H125v2Zm2.5-1v5.25h2V3.5h-2Zm1 6.25h5.25v-2h-5.25v2Zm6.25-1V3.5h-2v5.25h2Zm-1-4.25h3.5v-2h-3.5v2Zm2.5-1v8.75h2V3.5h-2Zm1 7.75h-1.75v2h1.75v-2Zm-2.75 1V14h2v-1.75h-2Zm1 .75h-8.75v2h8.75v-2Zm5.25-.75h-1v1h1v-1Zm0-1.75v-1h-1v1h1Zm3.5 0v1h1v-1h-1Zm0-8.75h1v-1h-1v1Zm-1.75 0h-1v1h1v-1Zm0-1.75v-1h-1v1h1Zm5.25 0h1v-1h-1v1Zm0 10.5h-1v1h1v-1Zm3.5 0h1v-1h-1v1Zm0 1.75v1h1v-1h-1Zm-9.5 0V10.5h-2v1.75h2Zm-1-.75h3.5v-2h-3.5v2Zm4.5-1V1.75h-2v8.75h2Zm-1-9.75h-1.75v2h1.75v-2Zm-.75 1V0h-2v1.75h2Zm-1-.75h5.25v-2h-5.25v2Zm4.25-1v10.5h2V0h-2Zm1 11.5h3.5v-2h-3.5v2Zm2.5-1v1.75h2V10.5h-2Zm1 .75h-10.5v2h10.5v-2Zm3.5 1h-1v1h1v-1Zm0-1.75h1v-1h-1v1Zm-1.75 0h-1v1h1v-1Zm0-5.25v-1h-1v1h1Zm1.75 0v1h1v-1h-1Zm0-1.75v-1h-1v1h1Zm8.75 0h1v-1h-1v1Zm0 1.75h-1v1h1v-1Zm1.75 0h1v-1h-1v1Zm0 3.5v1h1v-1h-1Zm-8.75 0v-1h-1v1h1Zm0 1.75h-1v1h1v-1Zm7 0h1v-1h-1v1Zm0 1.75v1h1v-1h-1Zm-7-5.25h-1v1h1V7Zm5.25 0v1h1V7h-1Zm0-1.75h1v-1h-1v1Zm-5.25 0v-1h-1v1h1Zm-.75 7V10.5h-2v1.75h2Zm-1-2.75H153v2h1.75v-2Zm-.75 1V5.25h-2v5.25h2Zm-1-4.25h1.75v-2H153v2Zm2.75-1V3.5h-2v1.75h2Zm-1-.75h8.75v-2h-8.75v2Zm7.75-1v1.75h2V3.5h-2Zm1 2.75h1.75v-2h-1.75v2Zm.75-1v3.5h2v-3.5h-2Zm1 2.5h-8.75v2h8.75v-2Zm-9.75 1v1.75h2V8.75h-2Zm1 2.75h7v-2h-7v2Zm6-1v1.75h2V10.5h-2Zm1 .75h-8.75v2h8.75v-2Zm-7-3.25h5.25V6h-5.25v2Zm6.25-1V5.25h-2V7h2Zm-1-2.75h-5.25v2h5.25v-2Zm-6.25 1V7h2V5.25h-2Zm15 0h-1v1h1v-1Zm0-3.5v-1h-1v1h1Zm3.5 0h1v-1h-1v1Zm0 3.5v1h1v-1h-1Zm-3.5 5.25h-1v1h1v-1Zm0-3.5V6h-1v1h1Zm3.5 0h1V6h-1v1Zm0 3.5v1h1v-1h-1Zm-2.5-5.25v-3.5h-2v3.5h2Zm-1-2.5h3.5v-2h-3.5v2Zm2.5-1v3.5h2v-3.5h-2Zm1 2.5h-3.5v2h3.5v-2Zm-2.5 6.25V7h-2v3.5h2Zm-1-2.5h3.5V6h-3.5v2Zm2.5-1v3.5h2V7h-2Zm1 2.5h-3.5v2h3.5v-2Zm21 2.75h-1v1h1v-1Zm0-8.75v-1h-1v1h1Zm10.5 0h1v-1h-1v1Zm0 1.75h-1v1h1v-1Zm1.75 0h1v-1h-1v1Zm0 7v1h1v-1h-1Zm-3.5 0h-1v1h1v-1Zm0-7h1v-1h-1v1Zm-5.25 0v-1h-1v1h1Zm0 7v1h1v-1h-1Zm-2.5 0V3.5h-2v8.75h2Zm-1-7.75h10.5v-2H195v2Zm9.5-1v1.75h2V3.5h-2Zm1 2.75h1.75v-2h-1.75v2Zm.75-1v7h2v-7h-2Zm1 6h-3.5v2h3.5v-2Zm-2.5 1v-7h-2v7h2Zm-1-8h-5.25v2h5.25v-2Zm-6.25 1v7h2v-7h-2Zm1 6H195v2h3.5v-2Zm12.25 1h-1v1h1v-1Zm0-1.75h1v-1h-1v1Zm-1.75 0h-1v1h1v-1Zm0-5.25v-1h-1v1h1Zm1.75 0v1h1v-1h-1Zm0-1.75v-1h-1v1h1Zm8.75 0h1v-1h-1v1Zm0 1.75h-1v1h1v-1Zm1.75 0h1v-1h-1v1Zm0 5.25v1h1v-1h-1Zm-1.75 0v-1h-1v1h1Zm0 1.75v1h1v-1h-1Zm-7-1.75h-1v1h1v-1Zm5.25 0v1h1v-1h-1Zm0-5.25h1v-1h-1v1Zm-5.25 0v-1h-1v1h1Zm-.75 7V10.5h-2v1.75h2Zm-1-2.75H209v2h1.75v-2Zm-.75 1V5.25h-2v5.25h2Zm-1-4.25h1.75v-2H209v2Zm2.75-1V3.5h-2v1.75h2Zm-1-.75h8.75v-2h-8.75v2Zm7.75-1v1.75h2V3.5h-2Zm1 2.75h1.75v-2h-1.75v2Zm.75-1v5.25h2V5.25h-2Zm1 4.25h-1.75v2h1.75v-2Zm-2.75 1v1.75h2V10.5h-2Zm1 .75h-8.75v2h8.75v-2Zm-7 .25h5.25v-2h-5.25v2Zm6.25-1V5.25h-2v5.25h2Zm-1-6.25h-5.25v2h5.25v-2Zm-6.25 1v5.25h2V5.25h-2Zm11.5 7h-1v1h1v-1Zm0-8.75v-1h-1v1h1Zm10.5 0h1v-1h-1v1Zm0 1.75h-1v1h1v-1Zm1.75 0h1v-1h-1v1Zm0 7v1h1v-1h-1Zm-3.5 0h-1v1h1v-1Zm0-7h1v-1h-1v1Zm-5.25 0v-1h-1v1h1Zm0 7v1h1v-1h-1Zm-2.5 0V3.5h-2v8.75h2Zm-1-7.75h10.5v-2H223v2Zm9.5-1v1.75h2V3.5h-2Zm1 2.75h1.75v-2h-1.75v2Zm.75-1v7h2v-7h-2Zm1 6h-3.5v2h3.5v-2Zm-2.5 1v-7h-2v7h2Zm-1-8h-5.25v2h5.25v-2Zm-6.25 1v7h2v-7h-2Zm1 6H223v2h3.5v-2Zm12.25 1h-1v1h1v-1Zm0-1.75h1v-1h-1v1Zm-1.75 0h-1v1h1v-1Zm0-5.25v-1h-1v1h1Zm1.75 0v1h1v-1h-1Zm0-1.75v-1h-1v1h1Zm8.75 0h1v-1h-1v1Zm0 1.75h-1v1h1v-1Zm1.75 0h1v-1h-1v1Zm0 3.5v1h1v-1h-1Zm-8.75 0v-1h-1v1h1Zm0 1.75h-1v1h1v-1Zm7 0h1v-1h-1v1Zm0 1.75v1h1v-1h-1Zm-7-5.25h-1v1h1V7Zm5.25 0v1h1V7h-1Zm0-1.75h1v-1h-1v1Zm-5.25 0v-1h-1v1h1Zm-.75 7V10.5h-2v1.75h2Zm-1-2.75H237v2h1.75v-2Zm-.75 1V5.25h-2v5.25h2Zm-1-4.25h1.75v-2H237v2Zm2.75-1V3.5h-2v1.75h2Zm-1-.75h8.75v-2h-8.75v2Zm7.75-1v1.75h2V3.5h-2Zm1 2.75h1.75v-2h-1.75v2Zm.75-1v3.5h2v-3.5h-2Zm1 2.5h-8.75v2h8.75v-2Zm-9.75 1v1.75h2V8.75h-2Zm1 2.75h7v-2h-7v2Zm6-1v1.75h2V10.5h-2Zm1 .75h-8.75v2h8.75v-2Zm-7-3.25h5.25V6h-5.25v2Zm6.25-1V5.25h-2V7h2Zm-1-2.75h-5.25v2h5.25v-2Zm-6.25 1V7h2V5.25h-2Zm15 0h-1v1h1v-1Zm0-3.5v-1h-1v1h1Zm3.5 0h1v-1h-1v1Zm0 3.5v1h1v-1h-1Zm-5.25 7h-1v1h1v-1Zm0-1.75v-1h-1v1h1Zm1.75 0v1h1v-1h-1Zm0-3.5V6h-1v1h1Zm3.5 0h1V6h-1v1Zm0 3.5v1h1v-1h-1Zm-1.75 0v-1h-1v1h1Zm0 1.75v1h1v-1h-1Zm-.75-7v-3.5h-2v3.5h2Zm-1-2.5h3.5v-2h-3.5v2Zm2.5-1v3.5h2v-3.5h-2Zm1 2.5h-3.5v2h3.5v-2Zm-4.25 8V10.5h-2v1.75h2Zm-1-.75h1.75v-2h-1.75v2Zm2.75-1V7h-2v3.5h2Zm-1-2.5h3.5V6h-3.5v2Zm2.5-1v3.5h2V7h-2Zm1 2.5h-1.75v2H258v-2Zm-2.75 1v1.75h2V10.5h-2Zm1 .75h-3.5v2h3.5v-2Zm10.5 1h-1v1h1v-1Zm0-1.75v-1h-1v1h1Zm1.75 0v1h1v-1h-1Zm0-1.75v-1h-1v1h1Zm1.75 0v1h1v-1h-1Zm0-1.75V6h-1v1h1ZM272 7v1h1V7h-1Zm0-1.75h1v-1h-1v1Zm-1.75 0h-1v1h1v-1Zm0-1.75h1v-1h-1v1Zm-1.75 0h-1v1h1v-1Zm0-1.75h1v-1h-1v1Zm-1.75 0h-1v1h1v-1Zm0-1.75v-1h-1v1h1Zm3.5 0h1v-1h-1v1Zm0 1.75h-1v1h1v-1Zm1.75 0h1v-1h-1v1Zm0 1.75h-1v1h1v-1Zm1.75 0h1v-1h-1v1Zm0 1.75h-1v1h1v-1Zm1.75 0h1v-1h-1v1Zm0 1.75v1h1V7h-1Zm-1.75 0V6h-1v1h1Zm0 1.75v1h1v-1h-1Zm-1.75 0v-1h-1v1h1Zm0 1.75v1h1v-1h-1Zm-1.75 0v-1h-1v1h1Zm0 1.75v1h1v-1h-1Zm-2.5 0V10.5h-2v1.75h2Zm-1-.75h1.75v-2h-1.75v2Zm2.75-1V8.75h-2v1.75h2Zm-1-.75h1.75v-2h-1.75v2Zm2.75-1V7h-2v1.75h2Zm-1-.75H272V6h-1.75v2ZM273 7V5.25h-2V7h2Zm-1-2.75h-1.75v2H272v-2Zm-.75 1V3.5h-2v1.75h2Zm-1-2.75h-1.75v2h1.75v-2Zm-.75 1V1.75h-2V3.5h2Zm-1-2.75h-1.75v2h1.75v-2Zm-.75 1V0h-2v1.75h2Zm-1-.75h3.5v-2h-3.5v2Zm2.5-1v1.75h2V0h-2Zm1 2.75H272v-2h-1.75v2Zm.75-1V3.5h2V1.75h-2Zm1 2.75h1.75v-2H272v2Zm.75-1v1.75h2V3.5h-2Zm1 2.75h1.75v-2h-1.75v2Zm.75-1V7h2V5.25h-2Zm1 .75h-1.75v2h1.75V6Zm-2.75 1v1.75h2V7h-2Zm1 .75H272v2h1.75v-2Zm-2.75 1v1.75h2V8.75h-2Zm1 .75h-1.75v2H272v-2Zm-2.75 1v1.75h2V10.5h-2Zm1 .75h-3.5v2h3.5v-2Z" mask="url(#a)"/>
    </g>
  </symbol>
  <symbol id="lifes-style-watermark"  width="164" height="14" fill="currentColor">
    <g opacity=".5" style="mix-blend-mode:hard-light">
      <mask id="a" width="166" height="16" x="-1" y="-1" fill="#000" maskUnits="userSpaceOnUse">
        <path fill="#fff" d="M-1-1h166v16H-1z"/>
        <path d="M6 12.25V10.5H4.25V8.75H2.5V7H.75V5.25H2.5V3.5h1.75V1.75H6V0h3.5v1.75H7.75V3.5H6v1.75H4.25V7H6v1.75h1.75v1.75H9.5v1.75H6Zm8.75 0V10.5H13V5.25h1.75V3.5h8.75v1.75h1.75v3.5H16.5v1.75h7v1.75h-8.75ZM16.5 7h5.25V5.25H16.5V7ZM27 12.25V10.5h1.75V8.75h1.75V7h-1.75V5.25H27V3.5h3.5v1.75h1.75V7H34V5.25h1.75V3.5h3.5v1.75H37.5V7h-1.75v1.75h1.75v1.75h1.75v1.75h-3.5V10.5H34V8.75h-1.75v1.75H30.5v1.75H27ZM41 14V3.5h10.5v1.75h1.75v3.5H51.5v1.75h-7V14H41Zm3.5-5.25h5.25v-3.5H44.5v3.5Zm12.25 3.5V10.5H55V5.25h1.75V3.5h8.75v1.75h1.75v3.5H58.5v1.75h7v1.75h-8.75ZM58.5 7h5.25V5.25H58.5V7Zm15.75-1.75H76V7h-1.75v5.25h-3.5V3.5h3.5v1.75Zm7-1.75v1.75H76V3.5h5.25Zm7-1.75V0h3.5v1.75h-3.5Zm-3.5 10.5V10.5h3.5V5.25H86.5V3.5h5.25v7h3.5v1.75h-10.5Zm14 0V10.5H97V5.25h1.75V3.5h8.75v1.75h1.75v3.5h-8.75v1.75h7v1.75h-8.75ZM100.5 7h5.25V5.25h-5.25V7Zm10.5 5.25V3.5h10.5v1.75h1.75v7h-3.5v-7h-5.25v7H111Zm15.75 0V10.5H125V5.25h1.75V3.5h10.5v1.75h-8.75v5.25h8.75v1.75h-10.5Zm14 0V10.5H139V5.25h1.75V3.5h8.75v1.75h1.75v3.5h-8.75v1.75h7v1.75h-8.75ZM142.5 7h5.25V5.25h-5.25V7Zm12.25 5.25V10.5h1.75V8.75h1.75V7H160V5.25h-1.75V3.5h-1.75V1.75h-1.75V0h3.5v1.75H160V3.5h1.75v1.75h1.75V7h-1.75v1.75H160v1.75h-1.75v1.75h-3.5Z"/>
      </mask>
      <path fill="#000" d="M6 12.25V10.5H4.25V8.75H2.5V7H.75V5.25H2.5V3.5h1.75V1.75H6V0h3.5v1.75H7.75V3.5H6v1.75H4.25V7H6v1.75h1.75v1.75H9.5v1.75H6Zm8.75 0V10.5H13V5.25h1.75V3.5h8.75v1.75h1.75v3.5H16.5v1.75h7v1.75h-8.75ZM16.5 7h5.25V5.25H16.5V7ZM27 12.25V10.5h1.75V8.75h1.75V7h-1.75V5.25H27V3.5h3.5v1.75h1.75V7H34V5.25h1.75V3.5h3.5v1.75H37.5V7h-1.75v1.75h1.75v1.75h1.75v1.75h-3.5V10.5H34V8.75h-1.75v1.75H30.5v1.75H27ZM41 14V3.5h10.5v1.75h1.75v3.5H51.5v1.75h-7V14H41Zm3.5-5.25h5.25v-3.5H44.5v3.5Zm12.25 3.5V10.5H55V5.25h1.75V3.5h8.75v1.75h1.75v3.5H58.5v1.75h7v1.75h-8.75ZM58.5 7h5.25V5.25H58.5V7Zm15.75-1.75H76V7h-1.75v5.25h-3.5V3.5h3.5v1.75Zm7-1.75v1.75H76V3.5h5.25Zm7-1.75V0h3.5v1.75h-3.5Zm-3.5 10.5V10.5h3.5V5.25H86.5V3.5h5.25v7h3.5v1.75h-10.5Zm14 0V10.5H97V5.25h1.75V3.5h8.75v1.75h1.75v3.5h-8.75v1.75h7v1.75h-8.75ZM100.5 7h5.25V5.25h-5.25V7Zm10.5 5.25V3.5h10.5v1.75h1.75v7h-3.5v-7h-5.25v7H111Zm15.75 0V10.5H125V5.25h1.75V3.5h10.5v1.75h-8.75v5.25h8.75v1.75h-10.5Zm14 0V10.5H139V5.25h1.75V3.5h8.75v1.75h1.75v3.5h-8.75v1.75h7v1.75h-8.75ZM142.5 7h5.25V5.25h-5.25V7Zm12.25 5.25V10.5h1.75V8.75h1.75V7H160V5.25h-1.75V3.5h-1.75V1.75h-1.75V0h3.5v1.75H160V3.5h1.75v1.75h1.75V7h-1.75v1.75H160v1.75h-1.75v1.75h-3.5Z"/>
      <path fill="#fff" d="M6 12.25H5v1h1v-1Zm0-1.75h1v-1H6v1Zm-1.75 0h-1v1h1v-1Zm0-1.75h1v-1h-1v1Zm-1.75 0h-1v1h1v-1ZM2.5 7h1V6h-1v1ZM.75 7h-1v1h1V7Zm0-1.75v-1h-1v1h1Zm1.75 0v1h1v-1h-1Zm0-1.75v-1h-1v1h1Zm1.75 0v1h1v-1h-1Zm0-1.75v-1h-1v1h1Zm1.75 0v1h1v-1H6ZM6 0v-1H5v1h1Zm3.5 0h1v-1h-1v1Zm0 1.75v1h1v-1h-1Zm-1.75 0v-1h-1v1h1Zm0 1.75v1h1v-1h-1ZM6 3.5v-1H5v1h1Zm0 1.75v1h1v-1H6Zm-1.75 0v-1h-1v1h1Zm0 1.75h-1v1h1V7ZM6 7h1V6H6v1Zm0 1.75H5v1h1v-1Zm1.75 0h1v-1h-1v1Zm0 1.75h-1v1h1v-1Zm1.75 0h1v-1h-1v1Zm0 1.75v1h1v-1h-1Zm-2.5 0V10.5H5v1.75h2ZM6 9.5H4.25v2H6v-2Zm-.75 1V8.75h-2v1.75h2Zm-1-2.75H2.5v2h1.75v-2Zm-.75 1V7h-2v1.75h2ZM2.5 6H.75v2H2.5V6Zm-.75 1V5.25h-2V7h2Zm-1-.75H2.5v-2H.75v2Zm2.75-1V3.5h-2v1.75h2Zm-1-.75h1.75v-2H2.5v2Zm2.75-1V1.75h-2V3.5h2Zm-1-.75H6v-2H4.25v2Zm2.75-1V0H5v1.75h2ZM6 1h3.5v-2H6v2Zm2.5-1v1.75h2V0h-2Zm1 .75H7.75v2H9.5v-2Zm-2.75 1V3.5h2V1.75h-2Zm1 .75H6v2h1.75v-2ZM5 3.5v1.75h2V3.5H5Zm1 .75H4.25v2H6v-2Zm-2.75 1V7h2V5.25h-2Zm1 2.75H6V6H4.25v2ZM5 7v1.75h2V7H5Zm1 2.75h1.75v-2H6v2Zm.75-1v1.75h2V8.75h-2Zm1 2.75H9.5v-2H7.75v2Zm.75-1v1.75h2V10.5h-2Zm1 .75H6v2h3.5v-2Zm5.25 1h-1v1h1v-1Zm0-1.75h1v-1h-1v1Zm-1.75 0h-1v1h1v-1Zm0-5.25v-1h-1v1h1Zm1.75 0v1h1v-1h-1Zm0-1.75v-1h-1v1h1Zm8.75 0h1v-1h-1v1Zm0 1.75h-1v1h1v-1Zm1.75 0h1v-1h-1v1Zm0 3.5v1h1v-1h-1Zm-8.75 0v-1h-1v1h1Zm0 1.75h-1v1h1v-1Zm7 0h1v-1h-1v1Zm0 1.75v1h1v-1h-1ZM16.5 7h-1v1h1V7Zm5.25 0v1h1V7h-1Zm0-1.75h1v-1h-1v1Zm-5.25 0v-1h-1v1h1Zm-.75 7V10.5h-2v1.75h2Zm-1-2.75H13v2h1.75v-2Zm-.75 1V5.25h-2v5.25h2Zm-1-4.25h1.75v-2H13v2Zm2.75-1V3.5h-2v1.75h2Zm-1-.75h8.75v-2h-8.75v2Zm7.75-1v1.75h2V3.5h-2Zm1 2.75h1.75v-2H23.5v2Zm.75-1v3.5h2v-3.5h-2Zm1 2.5H16.5v2h8.75v-2Zm-9.75 1v1.75h2V8.75h-2Zm1 2.75h7v-2h-7v2Zm6-1v1.75h2V10.5h-2Zm1 .75h-8.75v2h8.75v-2ZM16.5 8h5.25V6H16.5v2Zm6.25-1V5.25h-2V7h2Zm-1-2.75H16.5v2h5.25v-2Zm-6.25 1V7h2V5.25h-2Zm11.5 7h-1v1h1v-1Zm0-1.75v-1h-1v1h1Zm1.75 0v1h1v-1h-1Zm0-1.75v-1h-1v1h1Zm1.75 0v1h1v-1h-1Zm0-1.75h1V6h-1v1Zm-1.75 0h-1v1h1V7Zm0-1.75h1v-1h-1v1Zm-1.75 0h-1v1h1v-1Zm0-1.75v-1h-1v1h1Zm3.5 0h1v-1h-1v1Zm0 1.75h-1v1h1v-1Zm1.75 0h1v-1h-1v1Zm0 1.75h-1v1h1V7ZM34 7v1h1V7h-1Zm0-1.75v-1h-1v1h1Zm1.75 0v1h1v-1h-1Zm0-1.75v-1h-1v1h1Zm3.5 0h1v-1h-1v1Zm0 1.75v1h1v-1h-1Zm-1.75 0v-1h-1v1h1Zm0 1.75v1h1V7h-1Zm-1.75 0V6h-1v1h1Zm0 1.75h-1v1h1v-1Zm1.75 0h1v-1h-1v1Zm0 1.75h-1v1h1v-1Zm1.75 0h1v-1h-1v1Zm0 1.75v1h1v-1h-1Zm-3.5 0h-1v1h1v-1Zm0-1.75h1v-1h-1v1Zm-1.75 0h-1v1h1v-1Zm0-1.75h1v-1h-1v1Zm-1.75 0v-1h-1v1h1Zm0 1.75v1h1v-1h-1Zm-1.75 0v-1h-1v1h1Zm0 1.75v1h1v-1h-1Zm-2.5 0V10.5h-2v1.75h2Zm-1-.75h1.75v-2H27v2Zm2.75-1V8.75h-2v1.75h2Zm-1-.75h1.75v-2h-1.75v2Zm2.75-1V7h-2v1.75h2ZM30.5 6h-1.75v2h1.75V6Zm-.75 1V5.25h-2V7h2Zm-1-2.75H27v2h1.75v-2Zm-.75 1V3.5h-2v1.75h2Zm-1-.75h3.5v-2H27v2Zm2.5-1v1.75h2V3.5h-2Zm1 2.75h1.75v-2H30.5v2Zm.75-1V7h2V5.25h-2Zm1 2.75H34V6h-1.75v2ZM35 7V5.25h-2V7h2Zm-1-.75h1.75v-2H34v2Zm2.75-1V3.5h-2v1.75h2Zm-1-.75h3.5v-2h-3.5v2Zm2.5-1v1.75h2V3.5h-2Zm1 .75H37.5v2h1.75v-2Zm-2.75 1V7h2V5.25h-2Zm1 .75h-1.75v2h1.75V6Zm-2.75 1v1.75h2V7h-2Zm1 2.75h1.75v-2h-1.75v2Zm.75-1v1.75h2V8.75h-2Zm1 2.75h1.75v-2H37.5v2Zm.75-1v1.75h2V10.5h-2Zm1 .75h-3.5v2h3.5v-2Zm-2.5 1V10.5h-2v1.75h2Zm-1-2.75H34v2h1.75v-2Zm-.75 1V8.75h-2v1.75h2Zm-1-2.75h-1.75v2H34v-2Zm-2.75 1v1.75h2V8.75h-2Zm1 .75H30.5v2h1.75v-2Zm-2.75 1v1.75h2V10.5h-2Zm1 .75H27v2h3.5v-2ZM41 14h-1v1h1v-1Zm0-10.5v-1h-1v1h1Zm10.5 0h1v-1h-1v1Zm0 1.75h-1v1h1v-1Zm1.75 0h1v-1h-1v1Zm0 3.5v1h1v-1h-1Zm-1.75 0v-1h-1v1h1Zm0 1.75v1h1v-1h-1Zm-7 0v-1h-1v1h1Zm0 3.5v1h1v-1h-1Zm0-5.25h-1v1h1v-1Zm5.25 0v1h1v-1h-1Zm0-3.5h1v-1h-1v1Zm-5.25 0v-1h-1v1h1ZM42 14V3.5h-2V14h2Zm-1-9.5h10.5v-2H41v2Zm9.5-1v1.75h2V3.5h-2Zm1 2.75h1.75v-2H51.5v2Zm.75-1v3.5h2v-3.5h-2Zm1 2.5H51.5v2h1.75v-2Zm-2.75 1v1.75h2V8.75h-2Zm1 .75h-7v2h7v-2Zm-8 1V14h2v-3.5h-2Zm1 2.5H41v2h3.5v-2Zm0-3.25h5.25v-2H44.5v2Zm6.25-1v-3.5h-2v3.5h2Zm-1-4.5H44.5v2h5.25v-2Zm-6.25 1v3.5h2v-3.5h-2Zm13.25 7h-1v1h1v-1Zm0-1.75h1v-1h-1v1Zm-1.75 0h-1v1h1v-1Zm0-5.25v-1h-1v1h1Zm1.75 0v1h1v-1h-1Zm0-1.75v-1h-1v1h1Zm8.75 0h1v-1h-1v1Zm0 1.75h-1v1h1v-1Zm1.75 0h1v-1h-1v1Zm0 3.5v1h1v-1h-1Zm-8.75 0v-1h-1v1h1Zm0 1.75h-1v1h1v-1Zm7 0h1v-1h-1v1Zm0 1.75v1h1v-1h-1ZM58.5 7h-1v1h1V7Zm5.25 0v1h1V7h-1Zm0-1.75h1v-1h-1v1Zm-5.25 0v-1h-1v1h1Zm-.75 7V10.5h-2v1.75h2Zm-1-2.75H55v2h1.75v-2Zm-.75 1V5.25h-2v5.25h2Zm-1-4.25h1.75v-2H55v2Zm2.75-1V3.5h-2v1.75h2Zm-1-.75h8.75v-2h-8.75v2Zm7.75-1v1.75h2V3.5h-2Zm1 2.75h1.75v-2H65.5v2Zm.75-1v3.5h2v-3.5h-2Zm1 2.5H58.5v2h8.75v-2Zm-9.75 1v1.75h2V8.75h-2Zm1 2.75h7v-2h-7v2Zm6-1v1.75h2V10.5h-2Zm1 .75h-8.75v2h8.75v-2ZM58.5 8h5.25V6H58.5v2Zm6.25-1V5.25h-2V7h2Zm-1-2.75H58.5v2h5.25v-2Zm-6.25 1V7h2V5.25h-2Zm16.75 0h-1v1h1v-1Zm1.75 0h1v-1h-1v1ZM76 7v1h1V7h-1Zm-1.75 0V6h-1v1h1Zm0 5.25v1h1v-1h-1Zm-3.5 0h-1v1h1v-1Zm0-8.75v-1h-1v1h1Zm3.5 0h1v-1h-1v1Zm7 0h1v-1h-1v1Zm0 1.75v1h1v-1h-1Zm-5.25 0h-1v1h1v-1Zm0-1.75v-1h-1v1h1Zm-1.75 2.75H76v-2h-1.75v2Zm.75-1V7h2V5.25h-2ZM76 6h-1.75v2H76V6Zm-2.75 1v5.25h2V7h-2Zm1 4.25h-3.5v2h3.5v-2Zm-2.5 1V3.5h-2v8.75h2Zm-1-7.75h3.5v-2h-3.5v2Zm2.5-1v1.75h2V3.5h-2Zm7 0v1.75h2V3.5h-2Zm1 .75H76v2h5.25v-2Zm-4.25 1V3.5h-2v1.75h2Zm-1-.75h5.25v-2H76v2Zm12.25-2.75h-1v1h1v-1Zm0-1.75v-1h-1v1h1Zm3.5 0h1v-1h-1v1Zm0 1.75v1h1v-1h-1Zm-7 10.5h-1v1h1v-1Zm0-1.75v-1h-1v1h1Zm3.5 0v1h1v-1h-1Zm0-5.25h1v-1h-1v1Zm-1.75 0h-1v1h1v-1Zm0-1.75v-1h-1v1h1Zm5.25 0h1v-1h-1v1Zm0 7h-1v1h1v-1Zm3.5 0h1v-1h-1v1Zm0 1.75v1h1v-1h-1Zm-6-10.5V0h-2v1.75h2Zm-1-.75h3.5v-2h-3.5v2Zm2.5-1v1.75h2V0h-2Zm1 .75h-3.5v2h3.5v-2Zm-6 11.5V10.5h-2v1.75h2Zm-1-.75h3.5v-2h-3.5v2Zm4.5-1V5.25h-2v5.25h2Zm-1-6.25H86.5v2h1.75v-2Zm-.75 1V3.5h-2v1.75h2Zm-1-.75h5.25v-2H86.5v2Zm4.25-1v7h2v-7h-2Zm1 8h3.5v-2h-3.5v2Zm2.5-1v1.75h2V10.5h-2Zm1 .75h-10.5v2h10.5v-2Zm3.5 1h-1v1h1v-1Zm0-1.75h1v-1h-1v1Zm-1.75 0h-1v1h1v-1Zm0-5.25v-1h-1v1h1Zm1.75 0v1h1v-1h-1Zm0-1.75v-1h-1v1h1Zm8.75 0h1v-1h-1v1Zm0 1.75h-1v1h1v-1Zm1.75 0h1v-1h-1v1Zm0 3.5v1h1v-1h-1Zm-8.75 0v-1h-1v1h1Zm0 1.75h-1v1h1v-1Zm7 0h1v-1h-1v1Zm0 1.75v1h1v-1h-1Zm-7-5.25h-1v1h1V7Zm5.25 0v1h1V7h-1Zm0-1.75h1v-1h-1v1Zm-5.25 0v-1h-1v1h1Zm-.75 7V10.5h-2v1.75h2Zm-1-2.75H97v2h1.75v-2Zm-.75 1V5.25h-2v5.25h2Zm-1-4.25h1.75v-2H97v2Zm2.75-1V3.5h-2v1.75h2Zm-1-.75h8.75v-2h-8.75v2Zm7.75-1v1.75h2V3.5h-2Zm1 2.75h1.75v-2h-1.75v2Zm.75-1v3.5h2v-3.5h-2Zm1 2.5h-8.75v2h8.75v-2Zm-9.75 1v1.75h2V8.75h-2Zm1 2.75h7v-2h-7v2Zm6-1v1.75h2V10.5h-2Zm1 .75h-8.75v2h8.75v-2Zm-7-3.25h5.25V6h-5.25v2Zm6.25-1V5.25h-2V7h2Zm-1-2.75h-5.25v2h5.25v-2Zm-6.25 1V7h2V5.25h-2Zm11.5 7h-1v1h1v-1Zm0-8.75v-1h-1v1h1Zm10.5 0h1v-1h-1v1Zm0 1.75h-1v1h1v-1Zm1.75 0h1v-1h-1v1Zm0 7v1h1v-1h-1Zm-3.5 0h-1v1h1v-1Zm0-7h1v-1h-1v1Zm-5.25 0v-1h-1v1h1Zm0 7v1h1v-1h-1Zm-2.5 0V3.5h-2v8.75h2Zm-1-7.75h10.5v-2H111v2Zm9.5-1v1.75h2V3.5h-2Zm1 2.75h1.75v-2h-1.75v2Zm.75-1v7h2v-7h-2Zm1 6h-3.5v2h3.5v-2Zm-2.5 1v-7h-2v7h2Zm-1-8h-5.25v2h5.25v-2Zm-6.25 1v7h2v-7h-2Zm1 6H111v2h3.5v-2Zm12.25 1h-1v1h1v-1Zm0-1.75h1v-1h-1v1Zm-1.75 0h-1v1h1v-1Zm0-5.25v-1h-1v1h1Zm1.75 0v1h1v-1h-1Zm0-1.75v-1h-1v1h1Zm10.5 0h1v-1h-1v1Zm0 1.75v1h1v-1h-1Zm-8.75 0v-1h-1v1h1Zm0 5.25h-1v1h1v-1Zm8.75 0h1v-1h-1v1Zm0 1.75v1h1v-1h-1Zm-9.5 0V10.5h-2v1.75h2Zm-1-2.75H125v2h1.75v-2Zm-.75 1V5.25h-2v5.25h2Zm-1-4.25h1.75v-2H125v2Zm2.75-1V3.5h-2v1.75h2Zm-1-.75h10.5v-2h-10.5v2Zm9.5-1v1.75h2V3.5h-2Zm1 .75h-8.75v2h8.75v-2Zm-9.75 1v5.25h2V5.25h-2Zm1 6.25h8.75v-2h-8.75v2Zm7.75-1v1.75h2V10.5h-2Zm1 .75h-10.5v2h10.5v-2Zm3.5 1h-1v1h1v-1Zm0-1.75h1v-1h-1v1Zm-1.75 0h-1v1h1v-1Zm0-5.25v-1h-1v1h1Zm1.75 0v1h1v-1h-1Zm0-1.75v-1h-1v1h1Zm8.75 0h1v-1h-1v1Zm0 1.75h-1v1h1v-1Zm1.75 0h1v-1h-1v1Zm0 3.5v1h1v-1h-1Zm-8.75 0v-1h-1v1h1Zm0 1.75h-1v1h1v-1Zm7 0h1v-1h-1v1Zm0 1.75v1h1v-1h-1Zm-7-5.25h-1v1h1V7Zm5.25 0v1h1V7h-1Zm0-1.75h1v-1h-1v1Zm-5.25 0v-1h-1v1h1Zm-.75 7V10.5h-2v1.75h2Zm-1-2.75H139v2h1.75v-2Zm-.75 1V5.25h-2v5.25h2Zm-1-4.25h1.75v-2H139v2Zm2.75-1V3.5h-2v1.75h2Zm-1-.75h8.75v-2h-8.75v2Zm7.75-1v1.75h2V3.5h-2Zm1 2.75h1.75v-2h-1.75v2Zm.75-1v3.5h2v-3.5h-2Zm1 2.5h-8.75v2h8.75v-2Zm-9.75 1v1.75h2V8.75h-2Zm1 2.75h7v-2h-7v2Zm6-1v1.75h2V10.5h-2Zm1 .75h-8.75v2h8.75v-2Zm-7-3.25h5.25V6h-5.25v2Zm6.25-1V5.25h-2V7h2Zm-1-2.75h-5.25v2h5.25v-2Zm-6.25 1V7h2V5.25h-2Zm13.25 7h-1v1h1v-1Zm0-1.75v-1h-1v1h1Zm1.75 0v1h1v-1h-1Zm0-1.75v-1h-1v1h1Zm1.75 0v1h1v-1h-1Zm0-1.75V6h-1v1h1ZM160 7v1h1V7h-1Zm0-1.75h1v-1h-1v1Zm-1.75 0h-1v1h1v-1Zm0-1.75h1v-1h-1v1Zm-1.75 0h-1v1h1v-1Zm0-1.75h1v-1h-1v1Zm-1.75 0h-1v1h1v-1Zm0-1.75v-1h-1v1h1Zm3.5 0h1v-1h-1v1Zm0 1.75h-1v1h1v-1Zm1.75 0h1v-1h-1v1Zm0 1.75h-1v1h1v-1Zm1.75 0h1v-1h-1v1Zm0 1.75h-1v1h1v-1Zm1.75 0h1v-1h-1v1Zm0 1.75v1h1V7h-1Zm-1.75 0V6h-1v1h1Zm0 1.75v1h1v-1h-1Zm-1.75 0v-1h-1v1h1Zm0 1.75v1h1v-1h-1Zm-1.75 0v-1h-1v1h1Zm0 1.75v1h1v-1h-1Zm-2.5 0V10.5h-2v1.75h2Zm-1-.75h1.75v-2h-1.75v2Zm2.75-1V8.75h-2v1.75h2Zm-1-.75h1.75v-2h-1.75v2Zm2.75-1V7h-2v1.75h2Zm-1-.75H160V6h-1.75v2ZM161 7V5.25h-2V7h2Zm-1-2.75h-1.75v2H160v-2Zm-.75 1V3.5h-2v1.75h2Zm-1-2.75h-1.75v2h1.75v-2Zm-.75 1V1.75h-2V3.5h2Zm-1-2.75h-1.75v2h1.75v-2Zm-.75 1V0h-2v1.75h2Zm-1-.75h3.5v-2h-3.5v2Zm2.5-1v1.75h2V0h-2Zm1 2.75H160v-2h-1.75v2Zm.75-1V3.5h2V1.75h-2Zm1 2.75h1.75v-2H160v2Zm.75-1v1.75h2V3.5h-2Zm1 2.75h1.75v-2h-1.75v2Zm.75-1V7h2V5.25h-2Zm1 .75h-1.75v2h1.75V6Zm-2.75 1v1.75h2V7h-2Zm1 .75H160v2h1.75v-2Zm-2.75 1v1.75h2V8.75h-2Zm1 .75h-1.75v2H160v-2Zm-2.75 1v1.75h2V10.5h-2Zm1 .75h-3.5v2h3.5v-2Z" mask="url(#a)"/>
    </g>
  </symbol>
</svg>